<svg xmlns="http://www.w3.org/2000/svg" width="130" viewBox="0 0 97.5 97.5" height="130" version="1.0"><defs><clipPath id="a"><path d="M15.668 58h66v14.848h-66Zm0 0"/></clipPath><clipPath id="b"><path d="M15.668 39h66v20h-66Zm0 0"/></clipPath><clipPath id="c"><path d="M15.668 24.848h66V60h-66Zm0 0"/></clipPath></defs><g clip-path="url(#a)"><path fill="#171796" d="M15.668 65.457c0 4.078 3.281 7.383 7.332 7.383h51.332c4.05 0 7.336-3.305 7.336-7.383v-7.383h-66Zm0 0"/></g><g clip-path="url(#b)"><path fill="#eee" d="M15.668 39.621h66v18.453h-66Zm0 0"/></g><g clip-path="url(#c)"><path fill="#d52b1e" d="M74.332 24.855H23c-4.05 0-7.332 3.305-7.332 7.383v7.383h25.664V52.54c0 4.078 3.285 7.383 7.336 7.383 4.05 0 7.332-3.305 7.332-7.383V39.621h25.668v-7.383c0-4.078-3.285-7.383-7.336-7.383Zm0 0"/></g><path fill="#eee" d="M43.168 39.621h3.664v3.691h-3.664Zm3.664 3.691H50.5v3.692h-3.668Zm3.668-3.69h3.668v3.69H50.5Zm0 7.382h3.668v3.687H50.5Zm-7.332 0h3.664v3.687h-3.664Zm3.664 3.687H50.5v3.692h-3.668Zm0 7.043v-3.351h-3.328a5.485 5.485 0 0 0 3.328 3.351Zm3.668 0a5.475 5.475 0 0 0 3.328-3.351H50.5Zm0 0"/><path fill="#0193dd" d="M48.668 37.594c.527 0 1.043.031 1.562.078l.29-3.399-1.852-1.664-1.855 1.664.292 3.399a17.22 17.22 0 0 1 1.563-.078Zm7.645 1.718 1.433-3.101-1.176-2.2-2.312.923-.88 3.304c1.017.274 1.997.633 2.934 1.075Zm-12.36-1.074-.883-3.304-2.304-.922-1.176 2.199 1.43 3.098a18.002 18.002 0 0 1 2.933-1.07Zm0 0"/><path fill="#171796" d="m56.676 33.723-2.367.945-1.579-2.008-2.164 1.344-1.898-1.703-1.902 1.703-2.164-1.344-1.579 2.008-2.363-.945-1.328 2.48 1.574 3.414.207-.097c.926-.434 1.899-.79 2.895-1.06l.047-.01a17.444 17.444 0 0 1 2.992-.54l.078-.008c.836-.07 2.246-.07 3.082 0l.066.008c.98.086 1.993.27 3.008.54l.04.01c.992.27 1.964.626 2.894 1.063l.207.098L58 36.207Zm-15.543 5.28-1.29-2.784 1.028-1.914 2.008.804.793 2.97c-.871.245-1.723.554-2.54.925Zm6.18-1.581-.262-3.055 1.617-1.449 1.613 1.45-.261 3.054c-.391-.031-.864-.059-1.352-.059-.488 0-.961.028-1.355.059Zm8.886 1.582a18.28 18.28 0 0 0-2.539-.93l.793-2.969 2.012-.8 1.023 1.914Zm0 0"/></svg>