<svg xmlns="http://www.w3.org/2000/svg" width="130" viewBox="0 0 97.5 97.5" height="130" version="1.0"><defs><clipPath id="a"><path d="M15.66 24.844h66v48h-66Zm0 0"/></clipPath></defs><g clip-path="url(#a)"><path fill="#eee" d="M81.66 65.453c0 4.074-3.281 7.379-7.332 7.379H22.996c-4.05 0-7.336-3.305-7.336-7.379V32.234c0-4.078 3.285-7.382 7.336-7.382h51.332c4.05 0 7.332 3.304 7.332 7.382Zm0 0"/></g><path fill="#5c913b" d="M39.445 56.5c.028.11-.011.133-.133.098-.648-.188-1.226-.48-1.632-1.051a1.654 1.654 0 0 1-.27-.617c-.027-.106-.004-.164.121-.133.754.187 1.356.598 1.782 1.262a.839.839 0 0 1 .132.441Zm15.528.125a.777.777 0 0 1 .117-.559c.422-.671 1.031-1.078 1.793-1.273.133-.031.137.039.113.137-.094.433-.336.777-.668 1.054-.394.328-.851.524-1.355.641Zm1.742.426a.273.273 0 0 1-.11.168c-.539.496-1.156.773-1.902.699a1.035 1.035 0 0 1-.508-.207c-.082-.059-.078-.098-.004-.164.274-.234.586-.379.926-.473A3.427 3.427 0 0 1 56.54 57c.063.008.121.02.176.05Zm-18.25-.09c.508.008 1.07.11 1.574.45.09.062.242.128.234.218-.011.105-.164.156-.273.203-.309.137-.625.133-.945.055-.48-.114-.914-.32-1.262-.68-.043-.043-.11-.094-.086-.156.02-.047.098-.043.152-.051.176-.035.348-.04.606-.04Zm2-.711c0 .176-.02.34-.078.5-.035.094-.078.11-.16.047-.262-.195-.418-.461-.524-.762-.176-.492-.258-.996-.133-1.515.047-.18.067-.184.192-.051.468.5.66 1.11.703 1.781Zm13.476-.055c.051-.625.239-1.23.704-1.718.132-.145.16-.141.19.05.15.758.009 1.461-.456 2.086-.07.098-.18.242-.281.211-.121-.031-.114-.21-.137-.34-.02-.078-.012-.164-.02-.289Zm-4.086 1.145c.06 1.015-.417 1.746-1.105 2.406-.219-.8.168-2.027 1.105-2.406Zm-4.183 2.426c-.664-.653-1.149-1.336-1.125-2.282.004-.14.047-.144.156-.078.64.383.93.973 1 1.696.024.207.02.414-.031.664Zm6.652-3.524c.121.36.106.715.035 1.074-.09.446-.261.844-.597 1.16-.164.157-.188.153-.274-.062-.11-.27-.097-.547-.031-.82.121-.492.367-.914.73-1.262l.079-.066Zm-10.25-.012c.61.41 1.04 1.407.895 2.028-.028.12-.051.289-.157.32-.097.031-.19-.113-.265-.203-.512-.629-.645-1.34-.473-2.145Zm10.309 2.637c.597.04 1.11.254 1.508.723.129.152.12.164-.075.219-.496.136-.957.011-1.402-.196a2.585 2.585 0 0 1-.672-.457c-.082-.074-.082-.12.028-.164.195-.078.398-.129.613-.125Zm-10.348.004c.192-.004.38.035.559.106.172.066.18.09.043.203a2.691 2.691 0 0 1-1.317.652 1.557 1.557 0 0 1-.734-.027c-.188-.055-.195-.067-.066-.223.296-.363.695-.566 1.144-.672.121-.027.246-.039.371-.039Zm10.606 1.524c-.703.343-1.73.324-2.235-.47-.07-.112-.05-.148.07-.179.837-.195 1.54.055 2.165.649Zm-10.868.007c.383-.41.844-.629 1.38-.707.253-.035.503-.02.753.043.176.043.18.055.078.203-.343.508-.84.696-1.433.657a1.83 1.83 0 0 1-.778-.196Zm2.567-1.699c-.008.16-.035.29-.086.418-.035.106-.082.117-.164.047-.309-.258-.512-.586-.656-.953-.153-.375-.27-.758-.204-1.172.008-.05.008-.121.051-.137.059-.027.094.047.133.082.402.403.742.836.883 1.403.016.066.023.129.035.199Zm5.734.008c-.004-.27.078-.523.2-.766.187-.37.449-.687.746-.98.09-.082.128-.09.156.043.058.289.008.566-.07.84-.137.492-.356.937-.747 1.285-.14.125-.156.117-.222-.055a.995.995 0 0 1-.063-.367Zm1.211 2.578c-.363.027-.734.04-1.097-.066-.5-.141-.813-.496-1.036-.946-.03-.066-.035-.105.059-.105.863.004 1.547.36 2.066 1.043.008.012.012.031.02.047a.102.102 0 0 1-.012.027Zm-8.195.016c.113-.23.258-.371.418-.504.472-.39 1.008-.633 1.637-.63.105 0 .156.009.093.134-.32.633-.816.98-1.531.992-.195.012-.39.008-.617.008Zm9.89-3.567c-.242-.36-.261-.742-.167-1.136.097-.418.312-.786.593-1.11.078-.09.114-.074.168.02.13.246.149.504.11.773a2.776 2.776 0 0 1-.704 1.453Zm-12.07-2.316c.57.496 1.016 1.637.528 2.297-.641-.492-.938-1.805-.528-2.297Zm-.918 3.437c-.258-.007-.562-.035-.828-.207-.168-.109-.164-.125-.02-.25.329-.293.72-.328 1.13-.265.312.043.613.136.917.215.106.027.106.062.043.136-.136.153-.32.223-.511.282-.223.066-.45.09-.73.09Zm14.375 0c-.328-.007-.633-.043-.918-.18l-.094-.046c-.09-.055-.218-.113-.214-.219.007-.094.152-.078.238-.102.398-.105.793-.226 1.21-.195.259.024.481.121.673.285.148.125.148.141-.02.25-.27.176-.578.2-.875.207Zm0 0" fill-rule="evenodd"/><path fill="#5c913b" d="M48.71 60.941c-.456-.113-.92-.222-1.378-.34a.51.51 0 0 0-.266 0c-.457.118-.918.227-1.382.333.289-.23.62-.38 1.011-.5l-1.496-.52c.184-.031.305.027.426.059.48.125.96.23 1.45.324.21.039.405-.027.6-.067.587-.117 1.165-.27 1.747-.417-.547.234-1.113.414-1.715.617.379.125.711.265 1.004.511Zm0 0" fill-rule="evenodd"/><path fill="#f4900c" d="m62.914 36.137-.273.133c-.493.234-.957.554-1.536.515-.054-.004-.12.024-.132.086-.04.188-.176.207-.32.211a.756.756 0 0 0-.653.355c-.184.254-.41.45-.73.52a.853.853 0 0 0-.29.137 1.35 1.35 0 0 1-.855.203.228.228 0 0 0-.227.105c-.14.192-.296.371-.449.555-.082.098-.172.195-.293.219-.41.082-.738.336-1.093.527-.665.363-1.333.723-2.075.899-.308.07-.636.16-.937.078-.246-.067-.399.015-.567.136-.101.075-.199.149-.289.235-.347.34-.75.492-1.234.43a.404.404 0 0 0-.262.035c-.402.222-.855.226-1.293.312-.199.04-.402-.031-.59.016-.453.101-.894-.02-1.332-.063-.324-.031-.644-.105-.972-.05a.59.59 0 0 1-.516-.153c-.144-.129-.289-.137-.45-.043a.41.41 0 0 1-.421.012.644.644 0 0 0-.488-.04c-.207.06-.422.098-.633.028-.496-.16-1.012-.281-1.488-.5-.23-.11-.23-.101-.207.16.027.305.129.598.12.91-.015.426-.034.848-.066 1.278-.05.633-.375 1.058-.914 1.355a.58.58 0 0 1-.59.012c-.375-.184-.742-.379-1.136-.527-.5-.188-.993-.235-1.496-.016-.172.078-.32.238-.54.184-.011-.004-.035.023-.05.039-.176.183-.36.363-.426.62-.102.372-.262.688-.633.876-.203.105-.367.277-.578.379-.293.136-.645.156-.855-.035-.247-.227-.61-.364-.727-.73-.02-.071-.098-.122-.145-.017-.097.227-.195.465-.078.72.086.183.18.366.32.515a.305.305 0 0 1 .087.164c.043.215.058.43.003.644a.407.407 0 0 0 .055.336c.047.078.137.192.094.246-.168.22-.012.356.086.512.008.012.02.031.02.047-.008.254.175.344.367.43.113.05.226.11.27.242.105.355.151.726.276 1.078.043.121.07.203.184.27.258.144.535.261.695.546.075.133.246.176.407.157.062-.008.14-.035.171.023.079.129.204.129.313.117.262-.03.45.082.598.282a.56.56 0 0 0 .297.21c.269.09.535.18.792.297.153.075.301.098.446-.015.035-.032.082-.035.125-.028a.719.719 0 0 0 .64-.191c.079-.07.168-.113.266-.07.164.078.316.039.477 0 .18-.043.367-.059.53.035.302.172.493.457.68.746.122.184.122.387.086.59-.015.07.012.082.075.086.351.027.703.058 1.062.09-.031-.118-.117-.196-.18-.286-.136-.21-.226-.437-.144-.68a1.53 1.53 0 0 1 .824-.902c.16-.082.336-.148.496-.226.461-.227.93-.2 1.407-.063.25.07.542-.023.699-.218.031-.043.074-.055.117-.059.129-.02.262-.04.387 0 .136.047.242.047.343-.078.043-.055.125-.07.2-.067.05 0 .093 0 .136-.043.118-.136.278-.19.446-.23.039-.004.078-.004.109-.04.246-.308.605-.394.969-.468a.45.45 0 0 0 .297-.191c.265-.387.527-.485.98-.367.113.03.145-.008.172-.106.047-.172.125-.336.285-.426.09-.05.11-.113.11-.207l.011-.78c.012-.606.453-.923.914-.997.278-.043.563-.012.844-.008a.967.967 0 0 1 .527.164c.145.098.278.211.422.309.145.101.29.09.446.004.132-.07.191-.168.152-.32-.023-.094.023-.122.11-.118.128.012.28.043.382-.027.238-.164.48-.082.719-.067.094.008.187.004.266.055.199.13.457.113.644.274.012.011.04 0 .102 0-.098-.051-.09-.106-.075-.168a.53.53 0 0 0-.086-.426c-.144-.207-.406-.328-.445-.617-.012-.059-.105-.106-.16-.149-.113-.086-.227-.168-.34-.254-.07-.05-.14-.11-.156-.195-.07-.336-.297-.55-.527-.77-.442-.437-.633-.957-.528-1.578.035-.203.055-.414.192-.574.12-.14.265-.254.254-.46-.004-.024.019-.06.039-.071.238-.2.472-.406.824-.332.148.031.304.031.453.004.2-.032.355-.137.414-.352.027-.117.05-.238.113-.34.324-.53.797-.922 1.309-1.257.207-.141.46-.23.695-.344.149-.07.293-.153.457-.176a.327.327 0 0 0 .23-.145c.29-.378.602-.738 1.094-.867.137-.035.2-.156.25-.281.059-.168.118-.348.27-.445.477-.301.887-.735 1.496-.766.133-.008.203-.082.234-.207l.13-.512c.007-.007.019-.02.019-.023-.02-.012-.035-.004-.05.008Zm0 0" fill-rule="evenodd"/></svg>