<svg xmlns="http://www.w3.org/2000/svg" width="130" viewBox="0 0 97.5 97.5" height="130" version="1.0"><defs><clipPath id="a"><path d="M15.719 41h66v16h-66Zm0 0"/></clipPath><clipPath id="b"><path d="M15.719 24.883h66V42h-66Zm0 0"/></clipPath><clipPath id="c"><path d="M15.719 56h66v16.883h-66Zm0 0"/></clipPath></defs><g clip-path="url(#a)"><path fill="#eee" d="M15.719 41.504h66v14.762h-66Zm0 0"/></g><g clip-path="url(#b)"><path fill="#cd2a3e" d="M74.387 24.895H23.05c-4.051 0-7.332 3.304-7.332 7.382v9.227h66v-9.227c0-4.078-3.285-7.382-7.332-7.382Zm0 0"/></g><g clip-path="url(#c)"><path fill="#436f4d" d="M23.05 72.875h51.337c4.047 0 7.332-3.305 7.332-7.383v-9.226h-66v9.226c0 4.078 3.281 7.383 7.332 7.383Zm0 0"/></g></svg>