<svg xmlns="http://www.w3.org/2000/svg" width="130" viewBox="0 0 97.5 97.5" height="130" version="1.0"><defs><clipPath id="a"><path d="M15.8 24.945h66V41h-66Zm0 0"/></clipPath><clipPath id="b"><path d="M15.8 56h66v16.195h-66Zm0 0"/></clipPath><clipPath id="c"><path d="M15.8 40h66v17h-66Zm0 0"/></clipPath><clipPath id="d"><path d="M15.8 27H33v44H15.8Zm0 0"/></clipPath></defs><g clip-path="url(#a)"><path fill="#007a3d" d="M74.465 24.95H23.133c-4.051 0-7.332 3.253-7.332 7.265v8.176h66v-8.176c0-4.012-3.285-7.266-7.336-7.266Zm0 0"/></g><g clip-path="url(#b)"><path fill="#ce1126" d="M15.8 64.922c0 4.012 3.282 7.266 7.333 7.266h51.332c4.05 0 7.336-3.254 7.336-7.266v-8.176h-66Zm0 0"/></g><g clip-path="url(#c)"><path fill="#eee" d="M15.8 40.39h66v16.356h-66Zm0 0"/></g><g clip-path="url(#d)"><path fill="#141414" d="M18.008 27.016a7.233 7.233 0 0 0-2.207 5.199v32.707c0 2.035.847 3.879 2.207 5.2L32.3 56.745V40.391Zm0 0"/></g></svg>