<svg xmlns="http://www.w3.org/2000/svg" width="130" height="130" version="1.0" viewBox="0 0 97.5 97.5"><defs><clipPath id="a"><path d="M15.617 25.89H49v45.75H15.617Zm0 0"/></clipPath><clipPath id="b"><path d="M48 25.89h33.617v45.75H48Zm0 0"/></clipPath></defs><g clip-path="url(#a)"><path fill="#fff" d="M22.285 25.902c-3.683 0-6.668 2.996-6.668 6.696V64.93c0 3.699 2.985 6.699 6.668 6.699h26.332V25.902Zm7.34 10.715H26.52a1.153 1.153 0 0 1-.895.969c-.027 0-.04.012-.066.012v3.117h-3.633v-3.117a1.151 1.151 0 0 1-.961-.903c0-.027-.016-.039-.016-.066h-3.101v-3.645h3.101c.055-.464.438-.879.899-.968.027 0 .039-.016.066-.016v-3.117h3.629V32c.465.055.871.438.965.902 0 .028.012.04.012.067h3.105Zm0 0"/></g><g clip-path="url(#b)"><path fill="#cf142b" d="M74.953 25.902H48.617V71.63h26.336c3.684 0 6.664-3 6.664-6.7V32.599c0-3.7-2.98-6.696-6.664-6.696Zm0 0"/></g><path fill="#cf142b" d="M26.508 32.902a1.141 1.141 0 0 0-.965-.902v-3.117h-3.617V32c-.024 0-.04 0-.063.016-.476.09-.847.504-.898.968h-3.117v3.645h3.101c0 .027 0 .039.016.066.09.477.5.848.96.903v3.117h3.634v-3.117c.027 0 .039 0 .066-.012.473-.094.844-.504.895-.969h3.105V32.97H26.52c0-.012 0-.04-.012-.067Zm2.93 3.528h-3.086v.105c-.016.387-.305.742-.688.863-.016 0-.039.012-.055.012a.695.695 0 0 1-.238.016v3.117h-3.258v-3.117h-.172c-.015 0-.039 0-.054-.016h-.012c-.012 0-.04-.012-.055-.012a.082.082 0 0 1-.05-.027.754.754 0 0 1-.278-.172c-.012-.011-.027-.027-.055-.039-.011-.012-.023-.027-.039-.039v-.016l-.039-.039s0-.011-.011-.011c-.016-.016-.028-.028-.028-.04 0-.015-.011-.015-.011-.027-.016-.015-.016-.027-.028-.039a.127.127 0 0 1-.027-.066c-.012-.028-.027-.043-.027-.067-.012-.027-.012-.054-.024-.066 0-.016-.015-.04-.015-.055-.012-.078-.028-.16-.012-.238h-3.14V33.18h3.1v-.106c.012-.383.302-.742.684-.86.016 0 .043-.015.055-.015.078-.011.16-.027.238-.011V29.07h3.258v3.117h.106c.382.012.742.305.847.688 0 .016.012.043.012.055a.71.71 0 0 1 .016.238h3.101v3.262Zm0 0"/><path fill="#fff" d="M22.113 36.816c-.027-.027-.054-.043-.066-.066.027.04.05.078.066.117Zm-.066-3.964c.027-.028.05-.043.066-.067v-.055c-.027.04-.039.079-.066.122Zm-.305.304c.028-.027.04-.054.067-.082l-.118.082Zm4.028-.16c.117-.094.238-.21.328-.305-.012-.015-.024-.039-.04-.054a2.626 2.626 0 0 0-.488.172c.055.066.121.132.2.187Zm-.094.094c.027.023.039.05.066.066h.055c-.043-.015-.082-.043-.121-.066Zm-3.879 3.422c-.027-.028-.04-.055-.067-.067h-.054c.039.012.082.04.12.067Zm3.734.328c.094.12.211.242.305.332.012-.012.039-.024.05-.04a2.567 2.567 0 0 0-.171-.487.683.683 0 0 0-.184.195Zm-.16-4.055c.027.024.055.04.067.067-.024-.043-.051-.082-.067-.122Zm.082-.32c-.015.066.012.144.05.238.04-.094.067-.25.083-.355-.016 0-.043 0-.055.011-.054.028-.078.067-.078.106Zm-.015 4.285c-.024.023-.051.04-.067.066v.051c.016-.039.043-.078.067-.117Zm-3.403.371c.012-.066-.015-.148-.055-.238-.039.09-.066.25-.078.355.012 0 .04 0 .051-.011.04-.012.067-.055.082-.106Zm3.707-.691c-.027.027-.039.054-.066.082.039-.028.078-.055.12-.082Zm-4.039.16c-.117.094-.238.21-.328.305.012.011.023.039.04.054a3.04 3.04 0 0 0 .487-.176.762.762 0 0 0-.199-.183Zm.25-3.832c-.09-.121-.21-.238-.3-.332-.016.011-.044.027-.055.039.039.144.105.37.172.492a.899.899 0 0 0 .183-.2Zm0 0"/><path fill="#fff" d="M21.82 32.215a.955.955 0 0 0-.683.86.94.94 0 0 1 .683-.86Zm0 0"/><path fill="#fff" d="M21.926 32.188v.159h-.012c-.05-.016-.105 0-.156.023.062.082.168.172.262.254.015-.027.015-.066.027-.094l-.106-.078v-.027l.106-.106h.027l.04.04v-.172c-.079 0-.16 0-.239.011-.012 0-.04.016-.055.016.028-.016.067-.016.094-.028h.012Zm-.778 4.429h.162v.012c-.016.055 0 .105.023.16.082-.066.172-.172.254-.266-.027-.011-.066-.011-.094-.027l-.078.106h-.027l-.106-.106v-.027l.04-.04h-.173c0 .083 0 .16.012.239 0 .016.016.043.016.055-.016-.028-.016-.067-.028-.094v-.012Zm4.938.305c.027-.055.05-.106.066-.149a1.848 1.848 0 0 0-.277-.05c.012.093.066.238.105.316a.476.476 0 0 0 .106-.117Zm.223-4.059c-.106-.383-.461-.675-.844-.691a.978.978 0 0 1 .844.691Zm-4.383 4.547c-.012 0-.04 0-.051-.012.012 0 .027 0 .05.012Zm-.063-.012c-.015 0-.043-.011-.054-.011.011 0 .027 0 .054.011Zm-.582-.425c-.011-.012-.011-.024-.027-.04 0 .016.016.028.027.04Zm.516.398Zm-.437-.277-.04-.04c.012 0 .028.028.04.04Zm.054.054a.31.31 0 0 1-.039-.043c.012 0 .023.016.04.043Zm.051.04a.135.135 0 0 0-.05-.04c.01.012.038.024.05.04Zm.277.172Zm-.422-.333c-.011-.011-.027-.027-.027-.039 0 .012.016.028.027.04Zm4.239.383s0-.012 0 0l-.016-.012v-.144h.016c.05.012.105 0 .156-.027-.067-.079-.172-.172-.262-.254-.015.027-.015.066-.027.093l.105.082v.024l-.105.105h-.028l-.039-.039v.172c.078 0 .16 0 .239-.012.011 0 .039-.011.05-.011-.023.011-.05.011-.09.023.012 0 .012 0 0 0Zm0 0"/><path fill="#fff" d="M25.664 37.387a.973.973 0 0 0 .688-.864c-.016.383-.305.743-.688.864Zm.672-4.403h-.156v-.015a.24.24 0 0 0-.028-.16c-.078.066-.172.175-.25.265.024.016.067.016.09.028l.082-.106h.024l.105.106v.027l-.039.039h.172c0-.078 0-.16-.012-.238 0-.012-.015-.04-.015-.055.015.027.015.066.027.094v.015Zm-.488-.546c-.051-.024-.106-.051-.145-.067-.027.082-.039.188-.055.281.094-.015.239-.066.32-.109a.248.248 0 0 0-.12-.105Zm-4.422.636c.066.016.144-.011.238-.05a1.746 1.746 0 0 0-.355-.083c0 .016 0 .043.011.055.012.05.055.078.106.078Zm4.633 3.438c-.067-.016-.145.011-.239.05.094.04.254.067.36.083 0-.016 0-.043-.016-.055-.027-.04-.05-.067-.105-.078Zm-4.672-3.836c-.028.054-.055.11-.067.148.078.028.184.04.278.051a1.256 1.256 0 0 0-.106-.316.504.504 0 0 0-.105.117Zm.238 4.484a.82.82 0 0 0 .145.067c.027-.079.039-.188.05-.278a1.31 1.31 0 0 0-.316.106.944.944 0 0 0 .121.105Zm-.238-.808h.011a.877.877 0 0 1 .188.05h.117a.477.477 0 0 1-.094-.132h-3.402v-2.942h3.402l.094-.133h-.105a.817.817 0 0 1-.317.067h-.011c-.043 0-.082 0-.11-.016-.012 0-.012-.012-.012-.012v-.039h-3.074v3.196h3.274Zm3.894.796a.877.877 0 0 1 .051-.187v-.121a.437.437 0 0 1-.129.094v3.421h-2.918v-3.421l-.133-.094v.11a.9.9 0 0 1 .067.327c0 .043 0 .082-.016.11 0 .011-.012.011-.012.011h-.039v3.079h3.18v-3.29l-.039-.039h-.012Zm.805-3.902h-.012a.696.696 0 0 1-.187-.05h-.117a.391.391 0 0 1 .09.132h3.406v2.942h-3.407c-.023.042-.062.093-.09.132h.106a.821.821 0 0 1 .316-.066h.012c.04 0 .082 0 .106.016.015 0 .015.011.015.011v.04h3.063v-3.196h-3.25Zm-3.883-.793c-.012.067-.023.133-.05.184v.12a.477.477 0 0 1 .132-.093v-3.422h2.93v3.422l.133.094v-.106a.967.967 0 0 1-.067-.332c0-.039 0-.082.012-.105 0-.016.016-.016.016-.016h.039v-3.074h-3.196v3.29l.04.038c0-.016.011 0 .011 0Zm0 0"/><path d="m26.164 33.156.04-.043v-.023l-.106-.106h-.024l-.082.106c-.023 0-.05-.016-.09-.028.078-.093.172-.199.25-.265.012.055.028.105.028.16v.012h.156v-.012a.215.215 0 0 0-.027-.094c-.118-.383-.473-.675-.844-.691h-.106v-3.113h-3.246v3.289l-.039-.043h-.027l-.106.11v.023l.106.082c0 .023-.012.05-.027.09a2.023 2.023 0 0 1-.262-.25c.05-.012.105-.028.156-.028h.012v-.16h-.012a.285.285 0 0 0-.094.027c-.383.121-.672.477-.683.864v.105h-3.102v3.262h3.274l-.04.039v.027l.106.106h.023l.082-.106c.024 0 .051.016.09.027-.078.094-.172.2-.25.266-.011-.055-.027-.105-.027-.16v-.012h-.156v.012c0 .027.011.066.023.094.016.027.016.05.027.066.016.027.016.05.028.066.012.028.027.04.027.067.012.012.012.027.028.039 0 .012.011.012.011.027.012.012.012.028.028.04 0 0 0 .011.011.011.012.016.028.027.04.043v.012c.015.011.027.027.038.039a.152.152 0 0 0 .055.039.95.95 0 0 0 .277.172c.012.015.04.015.051.027.016 0 .04.016.055.016h.012c.015 0 .039.011.054.011h.172v3.118h3.258v-3.29l.04.04h.026l.106-.106v-.027l-.106-.078c0-.028.016-.055.028-.094.094.078.199.172.265.254a.727.727 0 0 1-.16.023h-.011v.16h.011a.215.215 0 0 0 .094-.027c.383-.117.672-.476.684-.86v-.109h3.101V33.13h-3.246Zm-.305-.11c-.011-.01-.039-.01-.05-.023.105-.093.222-.199.304-.304.012.011.012.023.024.039-.078.078-.184.183-.278.289Zm-.234-.698h.05c-.027.09-.05.222-.05.304v.012h.012c.093-.012.265-.066.37-.121a.523.523 0 0 0 .04.043c-.16.039-.371.105-.488.172-.016-.016-.016-.028-.028-.028.04-.078.078-.265.094-.382Zm-.121.355c-.04-.078-.067-.172-.05-.238.01-.05.038-.094.077-.106.012-.011.04-.011.055-.011a3.158 3.158 0 0 1-.082.355Zm.2-.344c.05.012.093.04.144.067.039.027.078.066.12.094-.093.039-.238.09-.32.105.016-.066.028-.188.055-.266Zm.355.278c.015.015.027.039.039.054-.09.094-.211.211-.317.317a.8.8 0 0 1-.195-.184c.105-.082.328-.148.473-.187Zm.226.238a.167.167 0 0 1 .012.066h-.078c.011-.171-.133-.41-.344-.543-.133-.093-.266-.117-.355-.078-.055.028-.094.067-.106.133-.027.172.117.422.34.57.094.051.172.09.254.09h.012l.078-.09.082.079-.106.105a.932.932 0 0 1-.765-.902c0-.024 0-.067.011-.09.41-.055.832.238.965.66Zm-.043 1.926c0 1.39-1.12 2.52-2.508 2.52a2.516 2.516 0 0 1-2.507-2.52 2.513 2.513 0 0 1 2.507-2.52 2.51 2.51 0 0 1 2.508 2.52Zm-.328-1.395H29.2v2.785h-3.285c.25-.398.41-.886.41-1.39 0-.52-.144-.996-.41-1.395Zm-.172 3.024h.055c-.043.027-.082.039-.121.082a.307.307 0 0 0 .066-.082Zm-.305.32c-.023.04-.05.078-.066.117v-.05c.027-.028.043-.055.067-.067Zm-.3.238v3.301h-2.785v-3.3c.394.25.882.41 1.382.41.516-.012.993-.16 1.403-.41Zm-3.024-.172v.051c-.027-.039-.039-.078-.066-.117l.066.066Zm-.316-.304a.466.466 0 0 0-.121-.067h.054a.16.16 0 0 1 .067.067Zm-.238-.32h-3.29v-2.786h3.29c-.25.399-.41.89-.41 1.395.011.515.16.992.41 1.39Zm.183-3.036h-.05c.038-.027.078-.043.117-.082a.638.638 0 0 1-.067.082Zm.305-.304a.757.757 0 0 0 .066-.122v.055c-.027.024-.054.04-.066.067Zm.305-.243v-3.3h2.77v3.3a2.625 2.625 0 0 0-1.388-.41c-.5 0-.988.149-1.382.41Zm3.02.176v-.055c.026.04.042.079.066.122a.533.533 0 0 0-.067-.067Zm.304.305c.039.023.078.05.12.066h-.054a.524.524 0 0 0-.066-.066Zm-3.524-3.98h3.18v3.078h-.039c-.012 0-.012.011-.012.011 0 .04-.015.082-.015.106 0 .12.015.226.066.332v.105a.425.425 0 0 0-.129-.09V29.23h-2.918v3.422c-.039.024-.094.067-.133.09v-.117a.837.837 0 0 0 .051-.188v-.011l-.039-.04V29.11Zm-.144 3.554c-.016.012-.016.04-.028.055a1.993 1.993 0 0 0-.304-.305c.015-.016.027-.016.039-.027.066.078.187.183.293.277Zm-.7.254v-.055c.09.028.223.055.301.055h.016v-.016a1.52 1.52 0 0 0-.121-.37c.016-.012.027-.028.039-.04.043.16.11.371.172.492-.012.012-.024.012-.024.024a.95.95 0 0 0-.382-.09Zm.356.105c-.078.04-.172.067-.238.051-.051-.011-.094-.039-.106-.078-.011-.012-.011-.039-.011-.055.105.016.261.055.355.082Zm-.344-.199c.012-.054.04-.094.067-.148.027-.04.066-.078.093-.117.04.093.09.238.106.316-.082-.012-.188-.023-.266-.05Zm.266-.36c.012-.01.039-.026.05-.038l.317.316a.754.754 0 0 1-.183.2 2.202 2.202 0 0 1-.184-.477Zm.234-.226c.028-.011.055-.011.067-.011v.078c-.172-.012-.407.133-.54.347-.093.133-.12.266-.077.356a.164.164 0 0 0 .128.105c.172.028.422-.117.57-.343.052-.094.09-.172.09-.25v-.016l-.09-.078.079-.078.105.105a.936.936 0 0 1-.898.77c-.027 0-.067 0-.094-.016-.05-.41.238-.836.66-.969Zm-3.746 4.153v-3.196h3.063v.04c0 .011.011.011.011.011.04 0 .079.016.106.016h.016c.105 0 .21-.028.316-.067h.105a.477.477 0 0 0-.093.133h-3.391v2.942h3.402c.028.042.067.093.094.132h-.117a1.114 1.114 0 0 0-.188-.05h-.011l-.04.039Zm3.535.16c.016.011.043.011.055.027-.105.09-.227.195-.305.305-.011-.016-.011-.028-.027-.043.082-.078.2-.195.277-.29Zm.254.687h-.054c.027-.09.054-.222.054-.304v-.012h-.015a1.54 1.54 0 0 0-.368.117.49.49 0 0 1-.043-.039c.16-.04.372-.105.489-.172.015.012.015.027.027.027a1.605 1.605 0 0 0-.09.383Zm.117-.355c.04.078.067.172.055.238-.015.05-.043.094-.082.106-.012.011-.039.011-.05.011.011-.09.038-.265.077-.355Zm-.199.344c-.05-.012-.09-.04-.144-.067-.04-.027-.078-.066-.117-.094.09-.039.238-.093.316-.105-.016.078-.04.187-.055.266Zm-.355-.266c-.012-.012-.028-.04-.04-.055.094-.09.212-.21.317-.316.078.055.145.12.2.183a2.946 2.946 0 0 1-.477.188Zm-.223-.238c-.015-.028-.015-.055-.015-.067h.082c-.016.172.128.41.34.543.132.094.265.121.359.078a.18.18 0 0 0 .105-.129c.024-.175-.12-.425-.344-.57-.093-.055-.171-.094-.25-.094h-.015l-.078.094-.078-.082.105-.105a.936.936 0 0 1 .766.902c0 .027 0 .066-.016.094-.406.05-.844-.239-.96-.664Zm4.129 3.765h-3.18V37.41h.04c.011 0 .011-.012.011-.012 0-.039.016-.078.016-.105a.733.733 0 0 0-.067-.332v-.106c.04.04.078.067.133.094v3.422h2.93V36.95l.133-.094v.118c-.028.066-.04.12-.055.187v.012l.039.043Zm.145-3.554c.015-.012.015-.04.027-.051.094.105.2.222.305.304-.012.012-.028.012-.04.028-.078-.082-.183-.2-.292-.281Zm.703-.25v.05a1.548 1.548 0 0 0-.305-.05h-.016v.011c.016.094.067.266.121.371-.011.016-.027.028-.039.04-.039-.157-.105-.372-.187-.489.016-.015.027-.015.027-.027.094.039.278.078.399.094Zm-.36-.121c.082-.04.172-.067.239-.051.054.011.093.039.105.078.016.012.016.039.016.055a1.784 1.784 0 0 1-.36-.083Zm.344.199c-.012.054-.039.093-.066.144-.024.043-.067.082-.09.121a1.765 1.765 0 0 1-.106-.316c.067.012.184.039.262.05Zm-.277.37c-.012.016-.04.028-.051.04-.094-.09-.211-.211-.316-.317a.82.82 0 0 1 .183-.199c.078.106.145.332.184.477Zm-.239.212c-.023.015-.05.015-.062.015v-.082c.168.016.406-.129.539-.343.094-.133.117-.266.078-.356a.183.183 0 0 0-.129-.11c-.172-.023-.426.122-.57.348a.542.542 0 0 0-.09.25v.016l.09.078-.078.078-.106-.105a.936.936 0 0 1 .899-.77c.023 0 .066 0 .09.016.054.41-.235.848-.66.965Zm3.762-.953h-3.074v-.04c0-.015-.012-.015-.012-.015-.039 0-.082-.012-.105-.012h-.016a.918.918 0 0 0-.316.067h-.106a.477.477 0 0 0 .094-.133h3.406v-2.946H25.86c-.023-.039-.062-.09-.09-.132h.118a.85.85 0 0 0 .187.054h.012l.039-.039h3.273v3.196Zm0 0"/><path fill="#fff" d="M21.559 33.406h-3.29v2.785h3.29a2.649 2.649 0 0 1-.41-1.39c.011-.52.16-.996.41-1.395Zm.793 3.582v3.301h2.77v-3.3a2.63 2.63 0 0 1-1.388.41 2.73 2.73 0 0 1-1.382-.41Zm3.562-.797H29.2v-2.785h-3.285c.25.399.41.89.41 1.395 0 .515-.144.992-.41 1.39Zm-.777-3.581v-3.301h-2.785v3.3c.394-.25.882-.41 1.382-.41.516 0 .993.149 1.403.41Zm0 0"/><path fill="#fff" d="M21.781 35.238c-.011-.093-.117-.148-.238-.133-.117.028-.184.118-.168.2.012.078.105.156.223.133.117-.028.199-.11.183-.2Zm1.836 1.856c0-.012 0-.028.012-.028-.012.016-.024 0-.024 0s.012-.027.024-.027c0 0-.012 0-.024-.012-.015-.011 0-.039 0-.054-.015 0-.043 0-.054.015-.04.028-.012.067 0 .094.012.023.012.066.054.066.024 0 .04-.015.051-.027-.027 0-.039 0-.039-.027Zm.16.066a.043.043 0 0 1-.027-.012c0 .012 0 .024-.016.024-.011 0-.011-.012-.011-.024 0 0-.012.012-.028.012-.023 0-.023-.012-.039-.012 0 .012-.011.024 0 .051.016.04.055.028.078.028.028 0 .067.011.082-.028.012-.027 0-.039 0-.05-.015.011-.027.023-.039.011Zm-.953-4.324-.172-.106v.2Zm0 0"/><path fill="#fff" d="M23.8 37.04c0-.013.028 0 .04-.013.015-.011 0-.039 0-.054 0-.012 0-.04-.024-.04-.027 0-.027.028-.039.016-.015 0 .012-.027 0-.043-.015-.023-.027-.011-.043-.011-.011 0-.039-.012-.039.011-.011.016.016.043 0 .043-.011 0-.011-.015-.039-.015-.027 0-.027.027-.027.039 0 .015-.012.027 0 .054.016.012.043 0 .043.012 0 .016-.027.016-.027.027-.016.028.011.028.027.04.012.015.023.027.039.015.012-.016.012-.039.023-.039.016 0 0 .023.028.04.027.01.039 0 .039-.017.015-.011.039-.011.027-.039 0-.011-.027-.011-.027-.027Zm-.066.015c-.023 0-.039-.016-.039-.04 0-.027.016-.042.04-.042.027 0 .042.015.042.043 0 .023-.015.039-.043.039Zm-.129-.095c0-.01 0-.026.024-.038h.027c-.011-.016-.011-.027-.011-.027s.027 0 .027.011c0 0 0-.011.012-.023.011-.016.027-.016.039-.016 0-.012-.012-.039-.028-.039-.039-.027-.066.012-.078.027-.027.012-.066.028-.055.067.016.027.028.039.043.039Zm.195-.077c.016.012.016.023.016.023 0-.011.024-.023.024-.011 0 0 0 .027-.012.027h.027c.012.012.028.027.028.039.012-.012.023-.012.039-.04.012-.038-.027-.054-.055-.066-.027-.015-.05-.054-.078-.027-.012.012-.027.027-.027.04 0 0 .015 0 .039.015Zm1.282-3.981-.172.094.145.106Zm.949 2.308c.067 0 .094-.038.106-.144a.707.707 0 0 0-.211-.027c-.012.145.043.172.105.172Zm-4.488-.636c.016-.133-.04-.16-.09-.172-.066 0-.094.04-.105.145.027.027.144.027.195.027Zm2.34 2.414c0 .012.012.028 0 .051 0 .016-.016.016-.028.016.012 0 .028.011.028.027 0 .012-.028.012-.028 0 0 0 .012.012.012.023 0 .028-.012.028-.027.043.015.012.027.024.055.024.039 0 .039-.04.05-.067.016-.023.043-.066 0-.09-.023-.027-.05-.027-.062-.027Zm0 0"/><path fill="#fff" d="M23.734 32.281a2.513 2.513 0 0 0-2.507 2.52c0 1.39 1.125 2.52 2.507 2.52a2.513 2.513 0 0 0 2.508-2.52 2.51 2.51 0 0 0-2.508-2.52Zm1.11.688.316-.184-.05.344s-.028.133-.016.238l-.117-.105c.066-.028.078-.121.078-.121l-.172-.118s-.106.04-.106.09l-.117-.066a.634.634 0 0 0 .184-.078Zm-.66-.598.12.027c-.054.082-.093.254-.12.399.105.027.199.055.253.027l-.042.117a1.467 1.467 0 0 0-.329-.09c.067-.16.133-.37.118-.48Zm-.711-.012c-.028.094 0 .266.039.41.105-.011.199-.027.238-.066l.012.121a2.48 2.48 0 0 0-.344.028c0-.16-.012-.387-.066-.48Zm-.86.625-.011-.359.289.2s.105.077.199.116l-.16.067c.015-.067-.078-.117-.078-.117l-.184.093s-.016.106.039.145l-.105.078c.027-.094.011-.223.011-.223Zm-.777.25c.066-.066.184-.105.184-.16l.066.082c-.106.012-.238.106-.238.2 0 .039.015.105.078.156.066.039.12.066.172.054.054-.015.132-.078.132-.12 0-.04-.09-.133-.144-.133l.094-.09a.46.46 0 0 0 .144.144.483.483 0 0 1-.183.238.26.26 0 0 1-.305-.039c-.094-.093-.055-.265 0-.332Zm-.516 1.168c.012-.039.078-.082.133-.082.05 0 .106.055.117.121.094-.066.211-.132.25-.21 0-.016.028-.016.028.011 0 .067-.106.172-.133.188l-.145.117v.039s.133.027.2.016l-.012.105c-.094-.039-.371-.055-.488-.039.011-.016.039-.215.05-.266Zm0 .914a.24.24 0 0 1 .2-.293c.144-.023.261.055.289.215.027.145-.051.278-.2.305a.277.277 0 0 1-.289-.227Zm.395.914a1.201 1.201 0 0 0-.172-.265.501.501 0 0 0 .082-.05c0 .065.09.198.09.198l.148-.093c-.043-.067-.082-.106-.105-.133.039-.028.062-.055.078-.055 0 .027.012.082.078.148 0 0 .133-.066.172-.12l.055.093c-.067.012-.344.188-.426.277Zm.848.56a.103.103 0 0 1-.106-.106c0-.067.04-.106.105-.106.051 0 .106.04.106.106s-.04.105-.105.105Zm1.41.304c-.012.027 0 .066-.04.093-.011.012-.038 0-.038 0 .011.012.027.04.011.051-.011.016-.039-.011-.039-.023 0 .012 0 .023-.012.039-.027.023-.066.012-.093.012-.028 0-.067.011-.09-.012-.016-.016-.016-.04-.016-.04 0 .024-.039.04-.039.024-.012-.011 0-.039.012-.05 0 0-.024.011-.04 0-.038-.028-.038-.067-.038-.094-.012-.028-.04-.055-.012-.094.012-.012.023-.027.04-.027-.028 0-.04-.024-.04-.024 0-.015.04-.015.05 0 0 0-.01-.027-.01-.043.01-.039.038-.05.066-.066.027-.012.039-.05.09-.04.015 0 .027.016.042.028-.015-.027 0-.055.012-.055s.027.028.012.055c0 0 .015-.027.039-.027.043 0 .066.027.094.039.027.015.066.027.066.066a.151.151 0 0 1-.012.043c.012-.015.051-.015.051 0 0 .012-.012.04-.039.024 0 0 .027.015.04.027-.04.04-.067.066-.067.094Zm.937-.305a.105.105 0 0 1-.105-.105c0-.067.039-.106.105-.106.055 0 .106.04.106.106s-.051.105-.106.105Zm-1.176-.066a1.935 1.935 0 0 1-1.925-1.938c0-1.058.859-1.933 1.925-1.933 1.059 0 1.93.859 1.93 1.933s-.86 1.938-1.93 1.938Zm2.207-.848c-.039-.027-.132-.016-.265.04.027.16.078.17.12.198l-.093.157c0-.145-.078-.29-.105-.344-.067-.04-.145-.094-.2-.078l.079-.133c.027.066.132.094.171.117.043.016.266-.05.372-.105Zm.223-.652c-.012.039-.078.082-.133.082-.062 0-.105-.055-.117-.121-.094.066-.21.132-.25.21 0 .016-.027.016-.027-.011 0-.067.105-.172.133-.188l.144-.105v-.04s-.133-.027-.2-.01l.016-.106c.09.039.368.05.489.05-.028-.011-.04.188-.055.239Zm-.066-1.059c.039.09.082.356.066.422l-.09.016v-.028c.024-.039 0-.16 0-.16-.133.016-.36.055-.398.094l-.028-.121c.055.015.278-.012.399-.051-.016-.066-.016-.121-.04-.133v-.027Zm-.368-.809-.105.477c.09-.039.234-.121.277-.16l.051.105c-.105-.011-.305.082-.45.172l-.01-.023.093-.465s-.238.105-.277.184l-.055-.094c.078 0 .332-.145.437-.223Zm0 0"/><path fill="#fff" d="M22.523 33.71v-.065l-.082.027c.016.012.028.012.04.027.015 0 .027.012.042.012Zm1.133-.116v.023c0 .043.016.067.016.11 0 .023 0 .078-.016.117.016.015.016.015.016.027v-.226c0-.012 0-.012.012-.028v-.023c0-.016 0-.016.011-.028v-.027s0-.012.016-.012c-.016 0-.016-.015-.027-.015h-.028v.082Zm1.547 1.523c0 .016.012.028.012.04 0 .015 0 .027.012.038 0-.039-.012-.078-.012-.105-.012-.012-.027-.012-.04 0h-.015c0-.012.027 0 .043.027Zm-2.512-1.59c.028.024.055.04.067.04.027 0 .066-.04.094-.079l-.2.012c.028.012.04.027.04.027Zm.622 2.559c-.012.027-.024.039-.04.055h.028c0-.028 0-.043.012-.055Zm.621-2.641-.04-.039Zm.421.293s-.011 0-.011-.011c-.04.011-.067.011-.121.011 0 .028-.012.067-.012.106l.012.015s.015 0 .015-.015c.04-.012.078-.051.117-.106Zm-.277 1.899c.027 0 .04-.016.067-.016h-.012c-.028 0-.04 0-.055-.012 0-.015 0-.027.016-.039.011-.015.011-.027.011-.043-.011-.011-.05-.011-.078-.011h-.054c0-.04.015-.055-.012-.094a.22.22 0 0 0-.094-.027h-.066l-.012-.012v-.012c.027-.016.05-.055.027-.094 0-.015-.027-.015-.054-.015-.028 0-.051 0-.067-.012-.011-.012-.011-.027-.011-.04 0-.015.011-.026.027-.026 0-.028-.016-.051-.027-.079h-.012a.644.644 0 0 1-.172.29c-.027.042-.027.066-.016.082.016.011.094.011.211.011h.028c.039 0 .144 0 .16.016.023 0 .05.023.078.039.012.012.027.027.05.027.044.012.044.04.067.067l.016.011c-.028-.027-.016-.027-.016-.011Zm-.449-1.567s-.012-.011 0 0c-.012.012-.012.028-.012.028-.012.023 0 .078.012.117 0 .015.016.039.016.055 0 .011 0 .027.011.039l.121-.04v-.027l-.015-.012v-.015s0-.012-.012-.012v-.027l-.016-.012a.261.261 0 0 1-.062-.055c-.027-.039-.027-.039-.043-.039Zm-.434 1.313-.093.094c-.04.039-.04.078 0 .132.027.028.093.09.16.157.066-.024.144-.012.21-.012h.051c.055-.027.172-.094.305-.094h.027c0-.012-.015-.023-.015-.039l-.012-.012c-.027.028-.066.051-.117.028H23.5c-.066 0-.133 0-.21-.016-.028 0-.056-.012-.067-.039-.028-.027-.028-.078-.016-.105 0-.028-.012-.067-.012-.094Zm1.438-.093c-.012-.028-.028-.04-.028-.067-.011.015-.011.015-.039.027h-.023c-.043 0-.094 0-.105-.012-.016 0-.043-.015-.067-.027-.016-.016-.027-.016-.027-.016a.527.527 0 0 1-.094-.023c-.012 0-.012.012-.027.023.015 0 .027.016.043.016.09.039.21.094.21.172v.039c-.015.039-.027.094.024.121.016.012.027.012.043.027h.023a.363.363 0 0 1-.011-.16.463.463 0 0 1 .078-.12Zm-.578-.29c-.055.012-.133.023-.215.04v.065h.015c.051 0 .2.028.344.067-.015 0-.027 0-.039-.016-.015-.011-.015-.039-.015-.05a.34.34 0 0 0-.028-.122c-.012 0-.039 0-.062.016Zm0 0"/><path fill="#fff" d="M24.844 34.852h-.04a.255.255 0 0 0-.132 0c-.04.015-.172.066-.3.082-.017 0-.044.011-.067.011a.486.486 0 0 0 .039.078.502.502 0 0 0 .066.067c.027 0 .04-.012.05-.024.04-.015.067-.054.095-.093.027-.028.039-.055.066-.067.027-.027.05-.039.133-.039.05 0 .066.012.066.04 0 .027-.027.027-.082.038-.039 0-.05.012-.066.055 0 .012-.012.012-.012.023-.012.028 0 .067.012.11v.012c-.012.027-.04.078-.04.117 0 .015 0 .015.016.043.063-.028.145.023.184.05.012.016.04.028.04.028 0-.012-.028-.04-.067-.078-.012-.016-.04-.043-.051-.055-.016-.027-.016-.04-.016-.055 0-.023 0-.062.028-.09h.027c.027 0 .066.028.09.051.015.016.027.028.043.028h.012c-.012-.012-.012-.028-.028-.04 0-.011 0-.011-.012-.027-.015-.012-.015-.027-.015-.05v-.016c.015-.012.082-.078.133-.094a.587.587 0 0 0-.118-.09c-.015-.015-.027-.015-.054-.015Zm-1.266 1.246s0 .015 0 0c.012 0 .027-.012.04-.012 0-.027.038-.066.093-.094-.094 0-.2-.039-.238-.078-.04-.016-.067-.016-.094 0a.72.72 0 0 0 .094.078l.039.028v.011c.011.028.039.043.066.067Zm.793.066H24.2s0 .016-.015.016c-.04.011-.067.039-.067.05 0 .016.043.016.055.016h.012c.015 0 .015.012.015.012 0 .012 0 .012-.015.012-.04.015-.145.042-.196.015-.027.012-.105 0-.238-.027-.04-.012-.094-.012-.105-.012a.105.105 0 0 1-.067-.027c-.015-.016-.027-.028-.027-.067h-.367l.894.278c.027.015.04.039.04.054v.012s0 .016-.013.016c-.011 0-.039.011-.05.011h-.016l-.75-.226c0 .016.012.039.012.055 0 .05-.04.093-.055.093a.27.27 0 0 1-.105.012h-.024c-.027 0-.027 0-.043.012 0 0-.012 0-.012.015-.011.012-.039.012-.05.012.21.094.445.149.699.149.473 0 .894-.176 1.227-.465-.172 0-.372 0-.567-.016ZM23.8 35.04c-.038 0-.066.01-.09.01a.167.167 0 0 1 .013.067c.027-.012.054-.012.078-.012v-.066Zm1.15 1.058c-.012-.012-.012-.024-.012-.04-.012 0-.028 0-.04-.011l-.027-.027c-.027.027-.078.054-.105.054-.012 0-.028.012-.04 0 0 0-.015 0-.015-.015-.023.027-.078.039-.078.039-.028 0-.051.015-.078.027.156 0 .304.016.46.016l.016-.016h-.015c-.028.016-.051 0-.067-.027Zm-2.032-1.563c.078-.039.2-.082.316-.105v-.016c0-.039.012-.078 0-.133-.011-.039-.027-.078-.039-.117-.011-.055-.027-.094-.039-.16 0-.027-.015-.04-.015-.066-.145.066-.278.21-.383.359v.012c0 .011 0 .027-.012.027l-.027.027Zm0 0"/><path fill="#fff" d="M24.648 34.984c0-.011.012-.011.012-.027.012-.039.027-.066.094-.078h.012c-.055 0-.067.012-.094.027-.024.028-.04.04-.067.067-.039.039-.062.078-.105.105-.012.012-.023.012-.04.012.017.015.028.015.04.027a.515.515 0 0 0 .105.028c.016 0 .028.011.028.039.015-.028.015-.051.027-.067-.012-.039-.039-.094-.012-.133Zm-2.457-.703a.53.53 0 0 0-.011-.183v-.016l-.145.133c.024 0 .05.015.078.027.028.028.067.055.078.04Zm.278 1.778c-.028 0-.04-.028-.04-.04 0-.027 0-.039.012-.054.016-.012.04-.012.055-.012l.422.133c.027-.055.094-.078.184-.094 0-.027 0-.066.015-.105-.043-.055-.094-.121-.12-.145-.013-.015-.028-.027-.04-.043a.736.736 0 0 0-.117-.105c-.016 0-.027-.012-.027-.04 0-.027 0-.05.011-.066a.53.53 0 0 0 .106-.199c.015-.027 0-.039 0-.039v-.012a1.118 1.118 0 0 1-.29-.32.41.41 0 0 1-.222-.027c-.027-.012-.094-.04-.133.015-.015.028-.015.078.012.106a.982.982 0 0 1 .183.183c.067.094 0 .149-.062.215v.067c.023.027.023.093.012.117a.063.063 0 0 1-.028.054l-.011.012c-.028.016-.055.04-.094.067-.027.027-.04.027-.05.027-.044-.012-.028-.078-.017-.117.016-.043-.027-.067-.05-.11-.04-.039-.028-.156 0-.199.011-.023.039-.078 0-.117-.04-.04-.145-.145-.133-.293a.248.248 0 0 1 .117-.184.203.203 0 0 1 .2-.015c.144.066.238.054.277.039a.614.614 0 0 1 .144-.172l-.156-.156-.027.023a.038.038 0 0 1-.055 0l-.012-.012c-.078-.011-.172-.011-.2-.027l-.065.027h-.012c-.067 0-.278-.093-.317-.16v-.011c-.054.16-.078.332-.078.515 0 .531.223 1.024.578 1.356.094 0 .188 0 .278-.016Zm1.453-2.68.039.043Zm-1.57.465-.094.039c.012.015.039.027.05.043.016.011.044.023.055.039 0-.016-.011-.067-.011-.094v-.027Zm0 0"/><path fill="#fff" d="M25.586 34.8a1.86 1.86 0 0 0-1.852-1.859c-.816 0-1.515.547-1.754 1.29l.2-.188c-.016-.105-.016-.16.011-.172l.145-.066c-.012-.067-.027-.133.016-.16h.011l.145-.051c0-.055 0-.106.027-.121.012 0 .027-.012.04 0l.316-.012c.054-.055.078-.082.105-.066.094.011.25.039.344.027h.027c.012 0 .028.012.04.012.011 0 .011.011.027.011h.066v-.023h-.027c-.028 0-.04-.016-.067-.027-.039-.016-.066-.028-.105-.016-.04.016-.133.016-.16-.012-.012-.012-.067-.012-.09-.012h-.016c-.023 0-.05-.042-.05-.066 0-.027 0-.043.027-.043.023-.012.117-.012.144-.012.012 0 .028 0 .04-.011.011 0 .027-.016.038-.016h.094c.012 0 .024.016.04.016l.01.011c.017 0 .079-.011.106-.039.04-.039.121-.133.211-.133a.34.34 0 0 1 .227.094l.039.04c.012.011.039.027.039.05v.016h-.012c-.054 0-.066.011-.066.027.012.012.012.04 0 .05l.039.056.012-.016s.015-.024.015-.04a.14.14 0 0 1 .04-.093l.011-.012c.016 0 .016 0 .016.012 0 .016.011.027.023.043.016.023.027.05.04.078.015 0 .027.012.042.012.012 0 .04 0 .063.016.015 0 .027.011.027.027.016 0 .04.012.055.012.066.027.133.054.172.066a.122.122 0 0 0 .066.012c.012 0 .023 0 .039.015.023.012.04.024.066.067v.011l.012.012v.043c0 .024-.012.04-.039.05h-.105a.061.061 0 0 0 .05.028c.016 0 .028.012.016.04 0 .027-.039.054-.066.054-.016 0-.04 0-.055-.016-.012 0-.04-.011-.05-.011a.578.578 0 0 1-.145.16c.09.105.172.222.183.355.04.028.067.067.078.11.028-.016.067-.043.094-.055a.42.42 0 0 1 .156-.078.316.316 0 0 1 .2.012c.027.011.25.144.304.187.051.04.106.078.145.145.039.05.039.132.027.172 0 .011-.015.011-.027.011l-.184-.05s-.015 0-.015-.016c-.012-.024-.012-.067.015-.106l.012-.011-.012-.016c-.015-.012-.027 0-.039 0-.027 0-.066 0-.082-.04a.731.731 0 0 0-.223-.105.105.105 0 0 0-.105.028 1.143 1.143 0 0 1-.133.183v.016h.184c.082.012.172.094.226.145.117.12.196.199.25.253.028.028.04.051.067.067.027.023.066.066.05.117 0 .016-.011.016-.011.016h-.172a.397.397 0 0 0 .172.156c.012 0 .039.027.039.055 0 .027-.012.054-.027.066-.012.027-.067.027-.106 0l-.023-.012c-.043-.015-.055-.027-.082-.027-.024 0-.051.027-.079.05-.039.044-.078.083-.16.083a.27.27 0 0 1-.129-.082c-.039-.04-.066-.051-.082-.04 0 .016.043.055.055.083.04.039.066.078.066.105a.21.21 0 0 1 .04.078.307.307 0 0 0 .171-.133c.051-.078.094-.117.133-.132.024-.012.051-.012.067 0 .011 0 .011.015.011.027h.012c.016 0 .016 0 .027.012.012.015.028.027.028.043 0 .011 0 .039-.016.05 0 0-.012.012-.012 0 0 0-.011 0-.011-.011h-.028c-.011 0-.039.023-.039.023-.015.016-.027.028-.027.043-.012.012-.012.024-.027.04-.012.011-.024.038-.051.05-.016.016-.04.043-.055.055v.054a.04.04 0 0 1 .027.012c.028.012.012.04.012.055.266-.348.426-.758.426-1.207Zm-2.512 1.563c.028 0 .055-.011.067-.027-.012 0-.04-.012-.051-.012a.324.324 0 0 1-.106-.027c-.066-.027-.093-.05-.078-.117l-.027-.016c-.121 0-.238 0-.344.016.145.117.305.222.477.304v-.027c0-.012.011-.078.062-.094Zm0 0"/><path d="M23.734 32.863a1.935 1.935 0 0 0-1.925 1.938c0 1.058.859 1.933 1.925 1.933a1.936 1.936 0 0 0 0-3.871Zm-1.847 1.938c0-.188.027-.36.082-.52v.016c.039.066.25.156.316.156h.012l.066-.023c.04.011.133.011.2.023 0 0 0 .016.011.016.012.011.04.011.055 0l.023-.028.16.16a.478.478 0 0 0-.144.172c-.04.012-.133.028-.277-.039a.214.214 0 0 0-.2.012.249.249 0 0 0-.117.188c-.015.144.09.25.13.289.042.039.015.093 0 .12-.024.04-.04.16 0 .2.026.027.066.066.054.105 0 .028-.012.094.012.118.015 0 .027 0 .054-.024.028-.043.067-.054.094-.066.012 0 .012-.016.012-.016.011-.012.027-.023.027-.05a.179.179 0 0 0-.016-.122v-.066c.067-.05.133-.117.067-.211a1.693 1.693 0 0 0-.184-.188c-.027-.023-.027-.066-.015-.105.043-.05.109-.027.132-.012.055.028.172.04.227.028.066.117.172.222.289.316v.012c.012.015.012.015 0 .043-.027.066-.094.172-.105.199-.012.012-.028.039-.012.066 0 .012.012.024.023.04a1.6 1.6 0 0 1 .16.144c.028.027.079.094.118.144-.012.043-.012.082-.012.11-.094 0-.16.039-.184.09l-.422-.133c-.027 0-.043 0-.054.015-.012.012-.028.04-.012.051 0 .016.012.043.04.043l.276.078c-.093 0-.187 0-.277.012a1.85 1.85 0 0 1-.61-1.363Zm.21-.504c.055.023.094.039.122.023.105-.133.383-.328.539-.394-.012.023-.024.039-.051.078v.012c-.055.043-.121.093-.172.16 0 0-.012 0-.012-.012-.015 0-.043.012-.043.023-.023.028-.023.043-.023.043 0 .012 0 .012.012.024l-.106.148-.066.028c-.078 0-.277-.11-.29-.149 0-.027.067 0 .09.016Zm-.062-.067.145-.132v.011c0 .067.011.16.011.188a.377.377 0 0 1-.078-.027c-.027-.016-.054-.028-.078-.04Zm.422-.52c.023.017.05.04.078.028.133-.054.305-.066.45-.078-.016.012-.028.024-.04.024-.172.066-.36.148-.543.254 0-.028-.011-.055-.011-.079-.016-.054-.04-.16-.016-.175.016-.012.055.015.082.027Zm-.016-.05.082-.027v.066c-.015 0-.027-.015-.043-.027-.011.012-.023 0-.039-.012Zm1.188.09c0 .043 0 .121-.012.148 0 .012-.012.028-.012.051 0 .016-.015.028-.015.043 0 .024-.012.078-.012.09-.015.04 0 .094.012.133 0 .015.015.027.015.039v.027c-.066-.011-.16-.039-.199-.093-.011-.012-.011-.012-.027 0-.012.015-.012.015 0 .027.055.055.16.094.238.105h.012c.016.016.043.016.082.028.09.015.129.027.195.054l.04.012c.027 0 .042.016.054.04.012.042.078.187.094.214.011.012.023.039.05.078l-.144.078-.012-.011V34.8c-.043-.094-.082-.188-.12-.215h.027c.011 0 .011 0 .011-.012 0-.011 0-.027-.011-.027-.079-.04-.16-.04-.223-.05-.043 0-.094-.017-.121-.017-.04-.011-.067-.027-.094-.039-.05-.027-.09-.054-.168-.054h-.016c0-.04 0-.078-.011-.133a1.473 1.473 0 0 1-.04-.117 1.124 1.124 0 0 1-.038-.145c-.016-.066-.016-.133-.016-.242l.078-.04c0 .017.016.017.016.028.027.055.039.106.078.133h.012s.015 0 .015-.012c0-.015 0-.027-.015-.027-.024-.016-.051-.066-.063-.121 0-.012-.016-.027-.016-.04h-.011l-.106.056a.8.8 0 0 1-.12.066c-.067.023-.079.039-.09.05l-.016.016c-.04.051-.117.172-.184.25-.012.028-.055.094-.055.145l-.117.121.055-.055c.012-.011.012-.011 0-.023-.016-.016-.016-.016-.027 0v-.027c-.016-.016-.016-.016-.028 0l-.05.039.05-.04c.012 0 .012-.015 0-.027 0-.012-.012-.012-.027 0l-.05.04a.728.728 0 0 1 .116-.079s.016 0 .016-.016a1 1 0 0 1 .078-.144.12.12 0 0 1 .04-.05.592.592 0 0 1 .077-.122c.028-.027.04-.055.055-.078.027-.055.355-.305.433-.348h.016c.012 0 .024-.011.04-.011.066.199.144.293.26.316Zm-.223-.277c.012 0 .012 0 0 0 0 .015.012.027.012.039 0-.012 0-.024-.012-.04Zm.051.015.016.024c-.016 0-.016-.012-.016-.024Zm.043-.12c-.016 0-.027 0-.043-.013-.039-.015-.078-.042-.129-.015a.194.194 0 0 1-.133 0c-.027-.012-.066-.012-.105-.028h-.016s-.012 0-.012-.011c-.011-.012-.011-.028-.011-.028.023-.011.105-.011.133-.011.023 0 .039 0 .05-.016.012 0 .012-.012.028-.012h.09c.015 0 .015 0 .027.012.016 0 .016.016.027.016a.248.248 0 0 0 .145-.055c.039-.039.105-.117.183-.117.094 0 .172.039.188.078.012.012.023.027.039.039 0 0 .012 0 .012.016-.028 0-.067.011-.067.05h-.011c-.012-.011-.04-.027-.04-.05-.015-.055-.054-.094-.12-.094-.051 0-.169.027-.196.105 0 .04-.016.067-.016.078h-.011c-.012 0-.028 0-.028.028.016.015.016.015.016.027Zm.66.077-.015.016-.118-.066c.012-.016.012-.04.028-.067 0-.016.011-.039.011-.055l.012.016c.016.023.04.05.04.078 0 0 0 .012.015.012.012 0 .012 0 .027.016v.05Zm-.015.055c0 .012 0 .012 0 0l.277.145a.33.33 0 0 0-.04.066c-.01 0-.027-.012-.038-.012h-.016c-.039.012-.062.012-.129.012-.094-.012-.144-.04-.16-.145V33.5c-.012 0-.012.012-.012.012 0 .172.051.281.172.36l.012.01a.976.976 0 0 1-.371.161c0-.027-.012-.066-.012-.105h.012c.015 0 .043 0 .055-.012.011-.016.027-.028.027-.043 0-.012 0-.024-.016-.04-.011-.011-.023-.027-.066-.027h-.024a.588.588 0 0 1 .196-.421Zm.293.105c.039.012.062.04.078.055l-.028-.015-.039-.012-.183-.094c0-.012.011-.012.011-.012.012-.015.028-.027.028-.039 0 .051.078.078.133.117Zm-.122-.144Zm.29.156c.015.016.027.016.042.016v.012c0 .015-.015.027-.015.027h-.067c-.011-.04-.05-.067-.105-.078-.066-.028-.106-.055-.106-.094.067.027.122.04.145.066.027.012.055.012.066.028h.028c0-.016 0 .011.011.023Zm-.368.598c.09 0 .145.039.184.082.015 0 .015.012.027.012a.19.19 0 0 1 .078.12.413.413 0 0 1 0 .196h-.011c-.055-.012-.133-.04-.188-.04-.012 0-.012.017-.012.017 0 .011.012.011.012.011.055 0 .121.012.172.04a.573.573 0 0 0 .148.027h.196a.38.38 0 0 1 .199.133c.133.12.2.199.25.253.027.024.039.051.066.067.028.023.04.039.04.062h-.145a.33.33 0 0 0-.027-.129c-.024-.027-.067-.027-.079-.027h-.011s-.016 0-.043-.055c-.024-.066-.157-.144-.168-.16-.043-.023-.055-.023-.082-.023h-.024a.176.176 0 0 0-.148 0c-.024.011-.067.023-.117.039-.117 0-.16-.016-.2-.028-.027-.011-.039-.011-.066-.027-.012 0-.012 0-.023.016 0 .011 0 .011.011.023.028 0 .04.016.067.028.027.015.039.015.078.027a.1.1 0 0 0-.05.012c-.017 0-.044.015-.067.027 0-.012 0-.012-.016-.027a1.39 1.39 0 0 0-.09-.145 5.332 5.332 0 0 0-.066-.094c-.016-.011-.067-.172-.078-.199a.083.083 0 0 0-.067-.05l-.043-.016c-.078-.024-.117-.04-.195-.051h-.016l.067-.027c.027-.012.082-.04.066-.121v-.024h.016c.144-.043.277-.094.406-.187.082.093.16.199.172.304a.374.374 0 0 0-.195-.078c-.016 0-.016.012-.016.012h-.012Zm1.043.332c-.027-.027-.066-.012-.078-.012-.015 0-.027 0-.043-.027-.023-.04-.223-.121-.25-.121-.05-.012-.105 0-.133.043-.011.011-.078.117-.129.172-.015.011-.015.023-.015.039-.012 0-.04 0-.067-.016a.413.413 0 0 0 0-.195c.04-.016.067-.043.094-.055a.485.485 0 0 1 .145-.078c.054-.016.133-.016.172.012.027.011.25.144.304.187.051.024.09.078.133.129.023.027.023.094.023.121l-.156-.039c0-.016 0-.039.012-.082.027-.05.027-.063-.012-.078Zm-.488 1.062c.027.028.066.067.05.078v.028c.016.012.04.05.028.078v.016h.012a.419.419 0 0 0 .226-.149.308.308 0 0 1 .118-.117h.039a.51.51 0 0 0-.09.078c-.016.027-.04.04-.067.055-.015 0-.015.011-.015.023l.015.016h.012c.04-.016.055-.04.082-.067.024-.027.04-.054.09-.078h.016c.011 0 .011.012.023.012l.016.012h-.016c-.023-.012-.05.015-.078.043-.012.011-.027.039-.04.05-.01.012-.01.028-.026.04-.012.015-.028.027-.051.054-.028.028-.043.04-.055.067-.066.066-.145.105-.223.144-.015.028-.082.055-.105.067 0 0-.016 0-.016.015v-.015c-.011-.094-.117-.094-.195-.106-.027 0-.055 0-.082-.012-.012 0-.012 0-.023.012 0 .012 0 .012.011.027.028 0 .051.012.094.012.09 0 .145.016.156.067-.012.015-.05.027-.066.039a.24.24 0 0 0-.09.027.574.574 0 0 1-.16.027h-.2c-.038-.011-.038-.011-.038-.027 0-.012.027-.027.039-.027h.015c.012 0 .012-.012.012-.012 0-.012 0-.012-.012-.012-.039-.015-.094 0-.144.012-.016 0-.028 0-.043.012h-.117c.066-.024.105-.067.117-.106.015-.027 0-.066-.024-.105-.043-.067-.199-.078-.265-.094-.012 0-.012.016-.012.016 0 .011.012.011.012.011.078 0 .199.028.238.067.027.027.027.054.012.066-.012.027-.067.078-.223.121-.016 0-.016.012-.016.024 0 .015.016.015.016.015.04 0 .078 0 .117-.015.055 0 .106-.012.133 0h.012c.015 0 .027 0 .043-.012.011 0 .039-.012.05-.012 0 .012-.011.012-.011.024 0 .043.023.054.05.054-.027.012-.066.04-.066.067 0 .011.016.027.027.039-.039 0-.078.012-.105 0h-.012c-.027.012-.148-.012-.226-.028-.051-.011-.09-.011-.106-.011-.011 0-.027 0-.039-.016-.012-.012-.012-.023-.012-.05 0-.012 0-.028.024-.04 0 0 .016 0 .016-.015v-.012s.011-.027.132-.106c.012 0 .012-.015.012-.027s-.012-.012-.012-.012c-.105.012-.254-.027-.277-.066h-.016c-.05-.027-.09-.016-.132.012v-.012c-.012-.016-.024-.043-.051-.082.027 0 .05-.012.078-.012h.171a.563.563 0 0 1 .289-.093c.015 0 .043 0 .055-.012h.21s.012 0 .012-.016v-.012c0-.011 0-.011-.012-.011.028 0 .067-.016.094-.016l.012.016v.011c0 .012.012.012.012.012.054.016.093.028.12.055.012.012.012.039.012.066v.012h.028c.055-.012.078-.012.094.039 0 .016.011.016.011.016.012 0 .012 0 .012-.016.027-.05.082-.117.105-.105.016 0 .028 0 .028-.012.015-.016.027-.055.015-.078-.015-.016-.027-.043-.054-.055 0 0 .011 0 .011-.012v-.015c-.023-.04-.023-.106-.011-.16.011-.051.027-.079.066-.09.05-.043.133.011.172.05.04.028.066.055.094.028.039-.04 0-.078-.067-.133-.015-.012-.039-.027-.054-.055 0-.011-.012-.023-.012-.023.039.023.078.066.117.09a.046.046 0 0 0 .04.015c.015 0 .027 0 .027-.015.027-.024.011-.067-.012-.106 0-.011-.016-.011-.016-.011-.012 0-.012-.012-.023-.028 0-.012-.016-.012-.016-.027 0-.012-.012-.012-.012-.024.012-.015.028-.015.04-.027h.039c.011 0 .027 0 .039-.016v.016l.015.012c.012.027.024.039.04.039-.016 0-.016 0-.028.015-.012.012-.012.04 0 .067a.07.07 0 0 0 .05.023c.016 0 .016 0 .028-.011.016-.012.016-.012.016-.028 0 .016.011.04.023.067a.572.572 0 0 0 .2.199.156.156 0 0 0 .027.027c0 .012-.016.028-.016.04 0 0-.039.015-.062-.012l-.028-.016c-.039-.023-.066-.023-.093-.023-.04 0-.067.039-.106.066-.039.039-.078.066-.117.066-.04 0-.082-.043-.121-.066-.04-.043-.078-.082-.133-.043-.012.016-.012.016-.012.027.028.04.067.082.094.121Zm.289.305c-.012.012-.027.027-.039.027-.027.024-.055.051-.117.079h-.028c-.015 0-.015-.012-.015-.028.066-.039.133-.078.199-.133v.055Zm-1.754.117c-.015-.011-.027-.011-.055-.011h-.011c-.028 0-.055-.028-.067-.055a1.3 1.3 0 0 0-.172-.238l-.039-.04c-.078-.078-.12-.105-.132-.117v-.015c0-.012 0-.028.011-.04a.77.77 0 0 0 .121-.21c.012-.043 0-.067-.015-.082-.117-.09-.223-.2-.29-.317l-.011-.015h-.016c-.011.015-.144.015-.195-.024-.055-.027-.133-.043-.172.024-.027.043-.027.12.024.148.054.04.109.106.171.172.055.05.016.094-.062.16 0 0-.016.012 0 .024v.027c0 .016 0 .027.012.055.011.011.011.066.011.093 0 .012-.011.024-.011.024l-.012.015a.238.238 0 0 0-.094.078l-.015.012v-.062c.015-.055-.024-.094-.063-.133-.027-.027-.016-.133.012-.16.027-.04.05-.106 0-.16-.04-.04-.133-.133-.117-.25a.246.246 0 0 1 .09-.16c.054-.028.12-.04.16-.016.172.082.277.054.316.054 0 0 .012 0 .012-.011a.637.637 0 0 1 .144-.176l.227.227h.012l.093.015h.012v-.015l-.012-.094v-.012l-.199-.2c.067-.026.145-.066.238-.093.094.043.094.238.094.371v.043c.117 0 .145.078.145.117 0 .082-.106.239-.239.305 0 0-.011.016-.027.027-.023.028-.066.067-.078.094-.027.04-.055.094 0 .184.039.043.21.199.238.254.012.027.067.066.133.117l.04.027c.01.04.038.067.065.082h-.21c0-.015 0-.027.011-.054-.054.039-.066.027-.078.011Zm.75.453s.016 0 0 0v.012l-1.598-.476c-.011 0-.011 0-.011-.012v-.028h.027Zm-.922-.343h-.054l-.133-.043c.043-.051.105-.067.172-.067 0 0 .015 0 .015-.011v-.094c.012.015.012.027.028.039.011.043.05.094.105.082-.016.027-.016.039-.043.05a.111.111 0 0 1-.09.044Zm.157-.055c0 .027 0 .039-.012.055h-.028a.249.249 0 0 1 .04-.055Zm-.633-1.672.394.398h.028c.015-.011.015-.011 0-.027l-.395-.398.41.398.012.055-.055-.016Zm-.04-.012-.038.04.132-.133-.043.039Zm.5-.504c-.156.067-.288.211-.406.356.012-.05.04-.09.04-.106.066-.078.144-.199.183-.25l.012-.015c0-.012.054-.024.082-.04.039-.011.066-.038.09-.05v.105Zm-.382.438c.015-.016.015-.027.015-.027v-.012c.106-.149.239-.293.383-.36 0 .028 0 .04.012.067.016.066.027.105.039.16.016.04.027.078.04.117.015.055.015.106 0 .133v.016a1.428 1.428 0 0 0-.317.105l-.184-.187Zm.488.16c0-.016-.012-.016-.023-.027h.011c.012.011.012.011.012.027Zm.043.024c.023.015.063.015.129.015h.082c.05.012.105.028.145.028h.027c.09-.016.156.011.168.023.027.027.082.16.105.2v.015a.416.416 0 0 0 .055.066c.012.012.04.024.066.051.012.016.012.016.028.027-.028 0-.04.012-.067.012a2.894 2.894 0 0 1-.398.066h-.156c-.016-.066-.067-.132-.172-.144v-.012c0-.12 0-.254-.055-.347.027-.012.027 0 .043 0Zm-.016-.067v-.023h.016c.063 0 .117.023.156.05a.423.423 0 0 0 .094.04c.04.015.078.015.133.027h.012-.039a.473.473 0 0 1-.133-.027h-.094c-.04 0-.09 0-.105-.012H23.3c-.012-.028-.028-.028-.028-.055Zm.993.531-.028-.05.028-.016c0 .016.011.016.011.027.012.028.028.067.051.094.027.04.121.117.16.117.028.016.078.016.106.028v.027h-.133c-.012 0-.023-.016-.04-.027-.01-.012-.026-.012-.026-.028a.598.598 0 0 0-.157-.023h-.027v-.028a.473.473 0 0 0-.027-.132l.015-.016.024.055a.166.166 0 0 0 .054.078h.028l.011-.012c-.027-.039-.027-.055-.05-.094Zm.632.055c0 .012-.015.012 0 0 0 .027 0 .05.012.066 0 .012.016.012.016.028.012.023.012.039.023.039h-.012c-.011 0-.027-.016-.039-.027-.015-.028-.066-.04-.093-.055h-.028c-.023.015-.023.066-.023.094 0 .011 0 .011.012.054.027.024.039.04.054.051.024.027.063.066.063.082-.012 0-.024-.016-.04-.027-.05-.04-.116-.082-.183-.055-.012-.027-.027-.027-.012-.039a.26.26 0 0 1 .04-.117v-.016a.137.137 0 0 1-.016-.105c0-.012.015-.012.015-.028.012-.039.024-.05.067-.05.05-.016.078-.016.078-.043 0-.024-.027-.024-.066-.04a.215.215 0 0 0-.133.04c-.028.027-.04.043-.067.066-.039.043-.066.082-.09.094-.015.015-.038.015-.054.027-.027-.027-.05-.039-.067-.066-.011-.028-.027-.055-.039-.078.028-.016.055-.016.067-.016a1.19 1.19 0 0 0 .305-.078.194.194 0 0 1 .132 0h.04c.023 0 .038 0 .066.012.039.027.078.054.117.093a.475.475 0 0 0-.145.094Zm.133-.055c0 .016 0 .016 0 0 0 .016 0 .016 0 0 0 .016 0 .016 0 0Zm-.066.211c.012.028.012.043 0 .043 0 0-.016 0-.027-.015-.04-.028-.106-.067-.133-.106.015 0 .054.028.066.04.012.027.04.038.055.038.012.016.023.016.039 0Zm-.383.375h-.027c-.012-.015-.028-.015-.04-.027-.038-.04-.027-.082-.027-.121v-.04c0-.077-.133-.132-.21-.171-.012-.016-.028-.016-.04-.016l.028-.023c.039 0 .078.012.09.023.015 0 .015.016.027.016.027.012.039.027.066.027.012 0 .067.012.106.012h.027c.012 0 .023-.012.04-.027 0 .027.01.039.026.066a.24.24 0 0 0-.066.121.166.166 0 0 0 0 .16Zm-.055.09c-.011-.012-.011-.012-.027 0a.185.185 0 0 1-.04.04c-.023.027-.05.054-.077.081 0-.015-.012-.027-.012-.039-.016-.027-.043-.043-.082-.054.04-.012.106-.04.16-.04.012 0 .012-.011.012-.027 0-.012-.012-.012-.023-.012-.067.012-.149.04-.2.051a.11.11 0 0 1-.039-.05s-.015 0-.015-.016a.777.777 0 0 1 .226-.012c.012 0 .012-.012.012-.012 0-.015-.012-.015-.012-.015-.082 0-.2.015-.305.027.012-.012.012-.039 0-.066 0-.012-.011-.012-.027-.028.082-.011.172 0 .238 0h.067c.012 0 .012-.011.012-.011 0-.016-.012-.016-.012-.016h-.067c-.093 0-.222-.012-.355.027 0-.027 0-.05-.016-.093-.011-.012-.011-.012-.039-.024.133 0 .278.024.371.04.04 0 .067.01.078.01.016 0 .016-.01.016-.01 0-.016-.016-.016-.016-.016-.011 0-.039 0-.066-.012a1.693 1.693 0 0 0-.488-.04c.015-.027.027-.066 0-.093-.012-.027-.051-.027-.078-.027h-.04a.449.449 0 0 1 .157-.028c.055 0 .254.055.344.067.015.015.039.015.066.043.066.023.2.09.2.144v.028c-.012.039-.028.105.038.16.012.011.04.023.055.039.023.023.062.039.078.066.012.012 0 .04 0 .04-.055 0-.094.05-.121.093-.012-.027-.04-.027-.063-.027h-.015l.066-.067c.012-.015.028-.027.04-.039v-.082Zm-1.32-.066c.016.027.04.043.066.043.079 0 .145 0 .211.011h.211c.055.012.094-.011.121-.027 0 0 .012 0 .012.016.012.011.012.023.012.039h-.024c-.132 0-.253.066-.304.09h-.055c-.062 0-.145-.012-.21.015-.063-.066-.13-.133-.157-.16-.027-.05-.027-.105 0-.133.027-.027.05-.066.078-.093v.109c.016.012.016.066.039.09Zm.61-.012c-.04.027-.067.04-.106.027-.082 0-.16 0-.227-.015-.066 0-.132 0-.21-.012-.012 0-.028-.012-.04-.027-.011-.028-.027-.051-.011-.078a.317.317 0 0 0 0-.149.532.532 0 0 0 .222-.223c.067 0 .117-.015.16-.082h.012a.62.62 0 0 1-.16.266c-.05.066-.039.121-.012.133.028.016.106.027.239.027h.171c.012 0 .04.012.067.04.012.015.039.027.05.038.028.016.028.028.055.055l.012.012c0 .015.016.015.016.027v.016h-.172a.105.105 0 0 0-.028-.067c0 .024-.015.012-.039.012Zm-.344-.492c0-.012.011-.024.011-.04h.078c-.011.028-.05.04-.09.04Zm.582.52a.177.177 0 0 0-.067-.067.103.103 0 0 0-.054-.027c-.028-.012-.051-.04-.079-.04-.015 0-.12 0-.16-.015h-.023c-.133 0-.2-.012-.215-.012-.012-.011-.012-.054.016-.078a.646.646 0 0 0 .172-.293h.011c.016.027.016.055.028.078-.012.016-.028.016-.028.028 0 .011 0 .027.016.039.012.015.039.015.062.015.028 0 .043 0 .055.012.027.055-.012.078-.027.094v.011s0 .016.015.016h.063c.043 0 .094 0 .094.024a.228.228 0 0 1 .011.093H24c.027 0 .066 0 .078.016.016.012 0 .023-.012.039 0 .027 0 .039-.011.066.011-.015.011-.015 0 0 .011-.015.011-.015 0 0 .011-.015.011-.015 0 0 .011-.015.011 0 0 0 .011 0 .011 0 0 0a.12.12 0 0 0 .062.012h.016c-.028 0-.04.016-.067.016l-.011-.016Zm-.344-.56c.023 0 .05-.01.09-.01v.065c-.024 0-.051.012-.078.012 0-.012-.012-.039-.012-.066Zm.91.134c0-.028-.016-.04-.027-.04a.35.35 0 0 1-.106-.027c-.011 0-.027-.012-.039-.027.012 0 .028-.012.04-.012a.45.45 0 0 0 .105-.105.137.137 0 0 1 .066-.067c.027-.027.04-.027.094-.027h-.016c-.066.012-.078.039-.09.078 0 .016-.015.016-.015.027-.028.04 0 .094.015.133 0 .016-.015.04-.027.067Zm-.398-.332-.024-.04v-.011a.1.1 0 0 0 .024.05Zm-.04.039c.016.015.016.015 0 0 .016.015.016.015 0 0 .016.015 0 .015 0 0 0 .015 0 .015 0 0 0 .015 0 0 0 0l-.023-.051Zm-.023.214c0 .012 0 .04.012.051.012.016.027.016.039.016a2.105 2.105 0 0 0-.344-.067h-.012v-.066c.079-.016.157-.027.211-.039.028 0 .051-.016.079-.016a.179.179 0 0 1 .015.121Zm-.015-.214c-.012 0-.012.015-.012.015-.016 0-.016-.015-.028-.015-.011-.012-.027-.024-.039-.024l.051-.027s0 .012.016.012ZM23.5 36.02l-.043-.04c-.039-.027-.062-.054-.09-.082.028-.011.051-.011.09 0a.386.386 0 0 0 .238.082c-.05.04-.09.067-.09.094-.015.012-.027.012-.027.024l-.015-.012c-.012-.012-.04-.027-.063-.066Zm1.61-.887.011.012.016.011s-.016 0-.016-.011c0 0 0-.012-.012-.012Zm.038-.055h.055a.29.29 0 0 1 .012.106c0-.012-.012-.028-.012-.04 0-.011 0-.027-.015-.039 0-.015-.028-.027-.04-.027Zm-1.492-1.683a.057.057 0 0 0-.066-.016c-.012 0-.027.016-.04.016 0 0 0-.016-.01-.016h-.017v-.012h.028c.012 0 .012-.012.012-.012 0-.015 0-.042.015-.082.012-.05.117-.078.156-.078.043 0 .067.028.082.067.012.027.04.066.067.078h.023v.027h-.023c-.016 0-.016.012-.016.028v.011c-.027 0-.078-.011-.09.04l-.015.015c-.012 0-.012.012-.028.027v.012c-.011.027-.011.04-.039.04h-.011v-.04a.18.18 0 0 0-.028-.105Zm.227.05.023.028Zm0 .055-.016-.012Zm.012-.094.039.028Zm-.133.121s0 .012-.012.024v.015c-.016-.015-.027-.015-.04-.027.013 0 .024-.012.024-.027v.015h.028Zm0-.039c.015-.015.015-.015.015-.027.012 0 .024-.016.024-.027 0-.012.015-.028.039-.012 0 .012 0 .039-.012.05v.016h-.039c-.012 0-.012.012-.012.024 0-.012 0-.012-.015-.024Zm-.04.317h.055Zm0 .039h.055-.055c0 .015 0 0 0 0Zm.055.12-.043.013Zm-.043.04h.043-.043c0 .012 0 0 0 0Zm.043.039-.043.016Zm-.054-.277h.066Zm0-.04h.066Zm0-.042.066.015Zm.011-.04.067.016Zm.016-.039.066.012Zm.027-.027c.012 0 .012 0 0 0l.04.016Zm.024-.039.039.012Zm.027-.027s0-.012 0 0c0-.012 0 0 0 0l.04.015Zm-.156.054c.012 0 .012 0 0 0h.012c.011 0 .011.012.027.012 0 0 0 .016-.016.016v.023s-.011.016-.011.028v.027s0 .012-.012.027v.227s-.016-.016-.016-.028c0-.039.016-.105.016-.12 0-.04 0-.079-.016-.106v-.027c0-.051 0-.067.016-.079Zm.012.371c0-.011 0-.011 0 0 0-.011 0-.011 0 0Zm-.028-.039c0 .012 0 .012 0 0 0 .012 0 .012 0 0Zm.067.239c0 .011 0 .011.011.027v.023c0 .016 0 .016.016.016v.012c0 .015 0 .015.012.015v.024l-.117.043c-.016-.016-.016-.016-.016-.043 0-.012 0-.024-.012-.05-.012-.04-.027-.083-.012-.122 0-.012 0-.012.012-.039l.012.016h.027c.028.05.04.062.067.078Zm.054.027.024-.016Zm.024.04-.024.01Zm.027-.106c-.027 0-.05.011-.078 0-.016 0-.04-.016-.055-.028h.016c.012.012.023.028.05.028h.067c.16-.04.29-.106.422-.2.078-.054.16-.171.2-.226a.685.685 0 0 1-.2.226.885.885 0 0 1-.422.2Zm.383-.239c0-.027 0-.082.012-.109.054 0 .082 0 .12-.012 0 0 .012 0 .012.012-.039.043-.078.094-.117.121 0 0-.015 0-.015.012 0-.012 0-.024-.012-.024Zm.277-.175c.012.027.04.054.078.066 0 .016-.011.016-.023.016-.016 0-.027 0-.043-.016-.012 0-.023-.012-.05-.012a.065.065 0 0 0 .038-.054Zm-.222-.196c-.016 0-.016 0 0 0-.016.012-.016.024-.028.024l-.054-.024.015-.027v-.016c0-.011 0-.023.012-.023 0 0 .012 0 .039.012.027.011.04.027.04.027-.013 0-.024.012-.024.027Zm-.082.262c0 .027-.012.055-.012.082a.423.423 0 0 1-.094-.121.545.545 0 0 0 .106.039Zm-.223-.328-.04-.043h.013Zm-.41.012c.012 0 .012 0 .027-.012 0 0 .012-.016.027-.016h.024c0 .016.016.016 0 .028-.012.027-.012.054 0 .066 0 .012.016.012.027.012-.011.015-.039.027-.027.066v.027c0 .028.016.055.016.079-.082-.024-.094-.079-.133-.196l-.012-.027h.012c.039.027.039 0 .039-.027Zm-1.055.836-.016.011c-.011.016-.011.028 0 .04 0 .015.016.015.016.015v.012c0 .015.012.015.027.027 0 .012.012.012.024.012v.015c-.078-.015-.129-.015-.172-.015.043-.04.066-.078.121-.117-.016 0-.016 0 0 0Zm-.016-.055c0-.012.028-.028.028-.028.015 0 .027.016.039.043-.012 0-.012.012-.024.012-.015-.012-.043-.027-.043-.027Zm.082-.04c.024-.027.067-.054.09-.077-.011.023-.039.066-.05.105-.016 0-.016.012-.028.012 0-.028-.012-.028-.012-.04Zm.579-.636c-.067 0-.157.012-.29.027.028-.015.04-.039.067-.066.027-.027.078-.078.094-.078.062.012.172.023.261.023-.039.028-.09.055-.132.094Zm-.368.027c-.015 0-.039-.015-.066-.039-.016-.015-.027-.015-.039-.027l.195-.012c-.039.04-.062.078-.09.078Zm-.093-.015c.027.027.054.054.093.054h.012c.145-.011.238-.027.305-.027a.163.163 0 0 1-.055.04h-.039c-.144.015-.316.027-.45.081v-.066c0-.04 0-.106.017-.121.039-.012.078.015.117.039Zm-.317.414c-.011 0-.039-.028-.054-.04-.012-.015-.04-.027-.051-.042l.094-.04v.016c.011.04.011.078.011.106Zm-.078-.016c.04.028.067.043.09.043h.016a2.53 2.53 0 0 1 .488-.242c-.016.016-.027.027-.027.043a.168.168 0 0 1-.051.066c-.133.024-.426.239-.57.383 0-.039 0-.078-.012-.144-.016-.067-.016-.172-.016-.188.016 0 .067.028.082.04Zm.711 2.535a1.704 1.704 0 0 1-.473-.293c.118 0 .235-.011.34-.011l.028.011c0 .067.015.106.078.121.043.012.082.012.105.024.016 0 .043.016.055.016-.012.011-.04.011-.067.027-.039 0-.05.066-.066.105 0-.015 0 0 0 0Zm.078-.082c.043 0 .094-.011.094-.066 0-.023-.04-.04-.078-.04a.215.215 0 0 1-.094-.026c-.039-.012-.066-.024-.05-.079l.327.106c.016.027.028.039.028.066 0 .04-.028.067-.04.067-.015.015-.054.015-.093.015h-.027c-.024 0-.04.012-.051.012h-.016c-.012.012-.023.012-.039.012a.11.11 0 0 1 .04-.067Zm.66.254a1.79 1.79 0 0 1-.699-.144c.016 0 .027 0 .055-.016 0 0 .012 0 .012-.012.015 0 .015-.015.039-.015h.027c.039 0 .094 0 .105-.012.016 0 .055-.039.055-.094 0-.011 0-.039-.015-.05l.753.222h.012c.016 0 .04-.012.055-.012 0 0 .012 0 .012-.011v-.016c0-.012-.028-.039-.04-.05l-.898-.282h.371c0 .027.012.055.027.066.012.016.04.028.067.028.012 0 .05.012.105.012.13.027.196.027.235.027.054.027.16 0 .199-.012.012 0 .012-.015.012-.015 0-.012 0-.012-.012-.012h-.012a.306.306 0 0 1-.054-.012c0-.016.039-.043.066-.055 0 0 .012 0 .012-.011h.172c.199 0 .398.011.593.011-.355.278-.777.465-1.254.465Zm1.27-.504c-.145 0-.305-.011-.461-.011.023-.016.05-.016.078-.028 0 0 .05-.015.078-.039 0 0 0 .012.012.012.016.012.027 0 .043 0 .023-.012.066-.04.105-.055 0 .016.012.028.024.028.015 0 .027.015.043.015 0 .012.012.024.012.04.011.027.039.027.066.027h.012s-.012 0-.012.011Zm.133-.187c0 .027-.094.12-.121.133-.012 0-.028-.012-.04-.012-.011-.012-.011-.012-.011-.027a.513.513 0 0 0 .117-.079c.012-.015.027-.015.027-.027 0 0 .012 0 .012.012.016-.012.016 0 .016 0Zm.011-.05c-.011 0-.011-.017-.027-.017v-.05c.016-.016.027-.04.055-.055l.05-.05c.016-.016.016-.028.028-.044.012-.011.027-.039.027-.039a.15.15 0 0 1 .04-.023h.027l.011.011h.012c.016-.011.016-.027.016-.054 0-.012-.016-.024-.028-.04-.011 0-.011 0-.027-.011h-.012c0-.016-.011-.016-.011-.027-.028-.012-.055-.012-.067 0-.039.011-.082.054-.133.132a.324.324 0 0 1-.172.133c0-.027-.027-.054-.039-.082 0-.023-.027-.062-.066-.105-.027-.024-.066-.067-.055-.078.016-.012.043 0 .082.039.04.027.078.066.13.082.066 0 .105-.043.16-.082.027-.028.054-.051.078-.051.027 0 .039 0 .082.023l.023.016c.04.027.094.027.105 0a.094.094 0 0 0 .028-.066c0-.028-.04-.055-.04-.055a.483.483 0 0 1-.171-.16h.172c.012 0 .012 0 .012-.012.015-.055-.024-.094-.051-.117-.016-.016-.04-.043-.067-.067-.054-.054-.133-.148-.25-.254a.416.416 0 0 0-.226-.144.361.361 0 0 0-.184 0v-.016c.05-.05.117-.156.133-.183.027-.028.066-.028.105-.028.028 0 .211.094.223.106a.116.116 0 0 0 .082.039h.04l.01.016s0 .011-.01.011a.108.108 0 0 0-.016.106s0 .015.015.015l.184.051c.012 0 .012 0 .027-.012a.222.222 0 0 0-.027-.171c-.04-.067-.094-.106-.145-.149-.066-.039-.277-.172-.304-.183a.347.347 0 0 0-.2-.016c-.05.016-.105.055-.156.082-.027.012-.055.039-.094.05a.204.204 0 0 0-.078-.105c-.012-.117-.094-.25-.183-.355a.64.64 0 0 0 .144-.16c.012 0 .04.011.05.011.017.016.04.016.056.016.027 0 .05-.027.066-.055 0-.011 0-.027-.016-.039-.023-.015-.039-.027-.05-.027h.05c.028 0 .04.012.055 0a.177.177 0 0 0 .04-.055v-.039c0-.012 0-.012-.013-.012v-.015a.202.202 0 0 0-.066-.063c-.016 0-.027 0-.039-.015-.016 0-.043-.012-.066-.012l-.172-.066c-.016 0-.04-.016-.055-.016l-.027-.024c-.024-.015-.051-.015-.063-.015-.015 0-.027-.012-.043-.012a.78.78 0 0 0-.039-.082c-.012-.012-.023-.023-.023-.039l-.016-.012c-.012 0-.012 0-.012.012-.027.027-.027.066-.039.094a.143.143 0 0 1-.015.039l-.012.015-.04-.054v-.055c0-.023.013-.023.067-.023H24v-.016c0-.027-.027-.039-.04-.05-.015-.016-.026-.016-.038-.044-.027-.05-.121-.09-.227-.09-.105 0-.172.09-.21.133-.028.04-.09.051-.106.04 0 0-.012 0-.012-.016-.015 0-.027-.012-.039-.012h-.094c-.011 0-.027 0-.039.012-.011 0-.027.015-.039.015-.015 0-.105 0-.144.012-.016 0-.028.027-.028.04 0 .026.028.066.051.066h.016c.012 0 .066 0 .09.015.043.012.12.027.16.012.039-.012.066 0 .105.015.012.012.04.012.067.024h.027v.027h-.066s-.016 0-.028-.011c-.011-.016-.027-.016-.039-.016h-.027c-.094.016-.25-.012-.344-.024-.027 0-.05.024-.105.067l-.317.012h-.039c-.027.027-.027.066-.027.117l-.145.054h-.011c-.028.028-.028.079-.016.16l-.145.067c-.027.012-.027.066-.011.172l-.2.184a1.852 1.852 0 0 1 1.754-1.286 1.859 1.859 0 0 1 1.426 3.04c.016.011.016 0-.012-.028Zm0 0"/><path fill="#fff" d="M26.031 32.598c-.011-.012-.023-.028-.039-.04a1.525 1.525 0 0 1-.367.118h-.016v-.012c.016-.094.028-.21.055-.305h-.055c-.011.121-.05.305-.09.399.012.012.012.027.024.027.133-.066.344-.133.488-.187Zm-.222.425a.1.1 0 0 0 .05.024c.094-.106.2-.211.278-.277 0-.012-.012-.028-.024-.04-.082.079-.199.2-.304.293Zm0 0"/><path fill="#fff" d="M25.309 32.32c-.016.422.328.82.765.903l.106-.11-.082-.078-.078.094s-.012.012-.012 0c-.082 0-.16-.04-.254-.094-.211-.144-.367-.398-.34-.57.012-.067.04-.106.106-.133.09-.039.222-.012.355.082.21.129.355.371.344.543h.078c0-.027-.012-.055-.012-.066-.12-.426-.555-.72-.965-.653-.011.016-.011.043-.011.082Zm.5 4.868c-.094-.094-.211-.2-.305-.305-.012.012-.027.039-.027.05.109.094.214.2.277.282a.103.103 0 0 1 .055-.028Zm-.067-.571c.067.133.133.332.184.488a.389.389 0 0 0 .043-.039 1.369 1.369 0 0 1-.121-.37v-.012h.011c.094.011.215.027.305.05v-.05a1.885 1.885 0 0 1-.394-.094c0 .012-.016.012-.028.027Zm0 0"/><path fill="#fff" d="M26.203 36.379c-.422-.016-.816.332-.894.77l.105.105.078-.082-.094-.078s-.011-.012 0-.012c0-.082.04-.16.094-.254.145-.21.395-.371.567-.344.066.012.105.04.132.106.04.094.012.226-.078.36-.133.21-.37.355-.543.343v.078c.028 0 .055-.012.067-.012.422-.12.715-.558.648-.968-.015-.012-.043-.012-.082-.012Zm-4.527.199a.082.082 0 0 0-.051-.027c-.094.105-.2.21-.277.277 0 .012.011.027.027.04.078-.095.195-.2.3-.29Zm-.238.41c.015.012.027.028.042.04a1.55 1.55 0 0 1 .368-.122h.015v.016c-.015.094-.027.21-.054.305h.054a1.72 1.72 0 0 1 .09-.399c-.012-.012-.012-.027-.027-.027-.117.082-.328.148-.488.187Zm0 0"/><path fill="#fff" d="M22.164 37.277c.016-.422-.328-.82-.766-.898l-.105.105.082.078.078-.093s.012-.012.012 0c.078 0 .16.043.25.093.21.149.37.399.344.57-.012.067-.04.106-.106.134-.09.039-.223.011-.355-.078-.211-.133-.356-.372-.344-.543h-.078c0 .023.012.05.012.066.12.422.554.715.964.648.012-.015.012-.054.012-.082Zm-.434-4.293a2.606 2.606 0 0 1-.171-.492c-.016.012-.028.028-.04.04a1.5 1.5 0 0 1 .118.37v.016h-.012c-.094-.016-.21-.027-.305-.055v.055c.117.012.305.05.395.09 0-.012 0-.024.015-.024Zm-.054-.57c.094.09.21.195.304.305a.143.143 0 0 0 .028-.055 3.08 3.08 0 0 1-.278-.277c-.027 0-.039.011-.054.027Zm0 0"/><path fill="#fff" d="M21.27 33.223c.421.011.816-.332.894-.77l-.105-.105-.079.078.094.078s.012.016 0 .016c0 .078-.039.156-.094.25-.144.214-.394.37-.566.343a.156.156 0 0 1-.133-.105c-.039-.09-.011-.223.078-.356.133-.215.371-.359.543-.347v-.078c-.027 0-.054.011-.066.011-.422.121-.715.559-.648.969.015.016.054.016.082.016Zm0 0"/><path d="m24.883 33.023.172.118s-.012.105-.078.12l.117.106c-.012-.094.015-.238.015-.238l.051-.344-.316.184s-.106.066-.196.078l.118.066c.011-.05.117-.09.117-.09Zm.199-.12-.027.199-.145-.106Zm-1.332-.094-.016-.118c-.039.051-.117.051-.234.067-.027-.149-.055-.32-.043-.41l-.117.011c.039.094.066.305.066.477.106-.012.223-.027.344-.027Zm-1.98 1.882.011-.105a.615.615 0 0 1-.195-.012v-.039l.144-.12c.012-.013.133-.118.133-.185 0-.027-.015-.015-.027-.015-.055.082-.16.148-.25.215a.16.16 0 0 0-.121-.121c-.067 0-.133.054-.133.078-.012.043-.039.254-.039.254.105 0 .383.011.477.05Zm-.317-.289c.05 0 .117.04.09.172-.05 0-.168 0-.211-.011.016-.122.055-.16.121-.16Zm.687-.797c.106-.054.145-.144.184-.238-.039-.012-.133-.094-.144-.144l-.094.09c.055 0 .144.109.144.132 0 .043-.078.106-.132.121a.185.185 0 0 1-.172-.054c-.063-.04-.078-.106-.078-.157 0-.093.132-.187.238-.199l-.066-.082c0 .055-.118.082-.184.16-.055.067-.094.227 0 .317.09.094.2.094.305.054Zm2.27-.664.04-.117c-.055.028-.134.012-.25-.027.023-.145.066-.317.116-.399l-.117-.027c.012.11-.054.305-.12.465.105.027.226.066.331.105Zm-2.785 2.586c.145-.023.223-.156.195-.304-.023-.145-.144-.239-.289-.211a.248.248 0 0 0-.199.293c.016.156.148.25.293.222Zm-.25-.222c-.016-.082.05-.188.168-.2.121-.027.227.04.238.133.016.09-.05.184-.172.211-.129.012-.222-.066-.234-.144Zm1.332-2.192c-.039-.039-.039-.144-.039-.144l.184-.094s.093.055.078.121l.16-.066c-.094-.04-.2-.121-.2-.121l-.288-.2.011.375s.016.13-.027.211Zm.117-.277-.156.094v-.2Zm2.84 2.996c-.039-.023-.16-.05-.172-.117l-.078.133c.05-.016.129.039.195.078.028.054.106.199.106.344l.094-.157c-.04-.015-.094-.039-.118-.199.13-.055.223-.066.262-.039l.078-.148c-.105.054-.34.12-.367.105Zm.039-.914-.012.105c.063-.011.196.016.196.016v.04l-.145.105c-.012.011-.133.12-.133.187 0 .024.016.012.028.012.054-.078.16-.145.25-.211.015.066.066.117.12.117.067 0 .13-.039.13-.078.015-.04.043-.238.043-.238a1.49 1.49 0 0 1-.477-.055Zm.328.293c-.05 0-.117-.04-.09-.172.051 0 .172 0 .211.027-.027.118-.066.157-.12.145Zm.043-.875c-.12.039-.36.066-.398.05l.027.122c.027-.04.266-.078.395-.094 0 0 .027.121 0 .16v.028l.093-.016a2.6 2.6 0 0 0-.066-.422l-.094.012v.027c.028.012.028.067.043.133Zm-.742-.691c.027-.067.277-.184.277-.184l-.09.465.012.023c.145-.09.344-.183.45-.172l-.055-.105a1.24 1.24 0 0 1-.278.16l.106-.477-.012-.027c-.105.078-.355.211-.433.223Zm-3.418 2.347c-.05-.066-.066-.117-.078-.144-.016 0-.055.027-.078.05a.561.561 0 0 1 .105.133l-.148.094s-.09-.133-.09-.2c-.016 0-.055.028-.082.055.043.04.121.16.172.266.082-.082.36-.266.426-.266l-.055-.093c-.04.027-.172.105-.172.105Zm3.102.692c0 .07-.036.105-.106.105s-.105-.035-.105-.105c0-.07.035-.106.105-.106.07 0 .106.035.106.106Zm-2.348 0c0 .07-.035.105-.105.105-.07 0-.106-.035-.106-.105 0-.07.035-.106.105-.106.07 0 .106.035.106.106Zm1.277.289c.028 0 .043-.024.043-.024 0-.015-.043-.015-.054 0 0 0 .011-.027.011-.043-.011-.039-.039-.05-.062-.066-.028-.012-.043-.05-.094-.04-.012 0-.027.016-.039.028.012-.027 0-.055-.016-.055-.011 0-.023.028-.011.055 0 0-.012-.027-.04-.027-.038 0-.066.027-.093.039-.027.015-.067.027-.067.066a.12.12 0 0 0 .016.043c-.016-.015-.055-.015-.055 0 0 .012.016.04.04.024l-.04.027c-.027.04 0 .066.016.094.012.027 0 .066.04.093.01.012.038 0 .038 0-.015.012-.027.04-.015.051.015.016.042-.011.042-.023 0 .012 0 .023.012.039.028.023.067.012.094.012.023 0 .066.011.09-.012.015-.016.015-.04.015-.04 0 .024.04.04.04.024.011-.011 0-.039-.016-.05 0 0 .027.011.043 0 .039-.028.039-.067.039-.094.012-.028.039-.055.012-.094.039-.012.027-.027.011-.027Zm-.168-.145c.04-.027.063.012.078.027.028.012.067.028.051.067 0 .027-.023.027-.039.039 0-.012 0-.027-.027-.04h-.024c.012-.015.012-.026.012-.026s-.027 0-.027.011c0 0 0-.011-.012-.023-.012-.016-.027-.016-.039-.016 0-.012.012-.027.027-.039Zm-.16.027c.028-.015.055-.054.078-.027.016.012.028.027.028.04-.012 0-.028 0-.04.015-.011.012-.011.023-.011.023 0-.011-.027-.023-.027-.011 0 0 0 .027.011.027h-.027c-.012.012-.024.027-.024.039-.015-.012-.027-.012-.043-.04 0-.038.043-.054.055-.066Zm-.012.305c-.043 0-.043-.039-.054-.066-.012-.028-.04-.067 0-.094.012-.012.039-.012.054-.012 0 .012-.015.028 0 .051 0 .016.012.016.024.016-.012 0-.024.011-.024.027 0 .012.024.012.024 0 0 0-.012.012-.012.023 0 .028.012.028.028.043-.016 0-.028.012-.04.012Zm.223.04c-.012.038-.05.027-.078.027-.027 0-.066.011-.078-.028-.016-.027 0-.039 0-.05.012.011.023.023.039.011.012 0 .023-.012.023-.012 0 .012 0 .024.016.024.012 0 .012-.012.012-.024 0 0 .015.012.027.012.027 0 .027-.012.04-.012v.051Zm-.027-.095c-.012.016-.024.028-.04.016-.011-.016-.011-.039-.027-.039-.011 0 0 .023-.023.04-.027.01-.04 0-.04-.017-.015-.011-.042-.011-.026-.039 0-.027.027-.027.027-.027 0-.012-.027 0-.043-.012-.012-.011 0-.039 0-.054 0-.012 0-.04.027-.04.028 0 .028.028.04.016.015 0-.012-.027 0-.043.015-.023.027-.011.038-.011.016 0 .043-.012.043.011.012.016-.015.043 0 .043.012 0 .012-.015.04-.015.023 0 .023.027.023.039 0 .015.015.027 0 .054-.012.012-.04 0-.04.012 0 .016.028.016.028.027.012.028-.012.04-.027.04Zm.133-.023c-.012.023-.012.066-.051.066-.028 0-.043-.015-.055-.027.012-.016.027-.016.027-.039 0-.016 0-.027-.015-.027.015.011.027 0 .027 0s-.012-.028-.027-.028c0 0 .015 0 .027-.011.016-.016 0-.043 0-.055.016 0 .04 0 .055.012.05.054.023.093.012.109Zm0 0"/><path d="M23.777 37.027c0 .028-.015.04-.043.04-.023 0-.039-.012-.039-.04 0-.027.016-.039.04-.039.027 0 .042.012.042.04Zm0 0"/><path fill="#fff" d="M23.29 36.047c-.017 0-.017 0 0 0a.11.11 0 0 1-.106-.082s-.016-.012-.028-.04c-.015.028-.015.067 0 .083v.012l-.015.011c-.067 0-.13.016-.172.067l.133.043c.015 0 .027-.016.054 0 .04 0 .067 0 .09-.028.016-.027.027-.039.043-.066Zm1.608-.039c0 .012.012.012.012.023h.027a.242.242 0 0 0 .118-.078c.015-.012.027-.027.039-.027v-.039c-.063.039-.13.078-.196.12Zm.239-.863-.016-.012s0 .012.016.012c0 .011 0 .011.011.011-.011 0-.011-.011-.011-.011Zm-.055.82c-.027.027-.05.055-.117.082 0 .012 0 .012.012.027 0 .012.011.012.039.012.027 0 .105-.106.12-.133v-.012s-.015 0-.015-.015c-.027.027-.027.039-.039.039Zm0 0"/><path fill="#fff" d="M24.871 35.504c.04.023.067.066.117.066.055 0 .094-.043.121-.066a.27.27 0 0 1 .106-.066c.039 0 .05 0 .094.023l.023.016c.04.011.066.011.066.011s.028-.027.016-.039c0 0-.016-.011-.027-.027a.69.69 0 0 1-.2-.2c-.011-.027-.011-.05-.027-.066 0 .016 0 .028-.012.028 0 0-.011.011-.027.011a.1.1 0 0 1-.05-.023c-.016-.027-.028-.055 0-.067 0 0 .011-.015.023-.015l-.04-.04-.011-.01v-.017c-.012.016-.027.016-.04.016h-.038c-.016.012-.027.027-.04.027 0 .012 0 .012.012.024 0 .015.012.015.012.027 0 .016.016.028.028.028l.011.011c.028.04.028.094.016.106 0 0-.016.015-.027.015-.012 0-.028 0-.04-.015-.027-.024-.078-.051-.117-.09l.012.023c.012.016.04.043.05.055.055.055.095.094.067.133-.023.027-.05 0-.09-.028-.054-.039-.12-.078-.172-.05-.027.011-.054.05-.066.09-.016.066-.016.132.012.16v.015l-.012.012c.012.012.04.027.05.055.017.039.017.062-.01.078-.013.012-.028.012-.028.012-.028-.012-.078.054-.106.105 0 .016-.011.016-.011.016-.016 0-.016 0-.016-.016-.012-.05-.04-.05-.09-.039h-.027v-.012c0-.027 0-.039-.012-.066-.016-.028-.066-.055-.121-.055-.012 0-.012 0-.012-.012v-.011s0-.016-.015-.016c-.024 0-.063.016-.09.016l.012.011v.012l-.012.016h-.211c-.027 0-.04 0-.055.011a.55.55 0 0 0-.289.094h-.172c-.027 0-.054 0-.078.012.024.027.05.055.05.082v.012c.028-.028.067-.028.134-.012h.011c.028.04.172.078.278.066.015 0 .015 0 .015.012s0 .012-.015.027c-.117.079-.13.094-.13.106v.012s0 .015-.015.015c-.027.012-.027.028-.027.04 0 .027 0 .038.016.054.011.012.027.012.039.012.011 0 .05.011.105.011.066.016.2.04.223.028h.015a.162.162 0 0 0 .106 0c-.016-.012-.028-.012-.028-.04 0-.027.028-.054.067-.066-.04-.011-.067-.027-.055-.054 0-.012 0-.012.016-.024-.016 0-.04.012-.055.012-.012 0-.023.012-.039.012h-.144c-.04 0-.094.015-.118.015-.015 0-.015-.015-.015-.015 0-.012 0-.012.015-.024.168-.043.211-.094.223-.12.012-.028 0-.04-.012-.067-.043-.04-.16-.067-.238-.067-.016 0-.016-.011-.016-.011 0-.016.016-.016.016-.016.066 0 .223.027.262.094.027.039.043.066.027.105-.012.04-.05.067-.117.106.05 0 .09-.012.117 0 .016 0 .027 0 .04-.012.054-.012.105-.027.144-.012.015 0 .015.012.015.012 0 .012 0 .012-.015.012h-.012c-.012 0-.04.015-.04.027 0 .016 0 .016.04.027h.2c.05 0 .105-.011.155-.027.028-.012.055-.012.094-.027.012 0 .067-.024.067-.04-.016-.05-.067-.066-.16-.066-.024 0-.067 0-.09-.012-.016 0-.016-.015-.016-.027s.016-.012.027-.012c.028 0 .055 0 .078.012.082 0 .172.012.2.106v.015s.011 0 .011-.015a.445.445 0 0 0 .106-.067.96.96 0 0 0 .226-.144c.012-.016.04-.04.051-.067.016-.027.043-.039.055-.054.012-.012.012-.028.027-.04a.11.11 0 0 1 .04-.05c.027-.028.05-.043.077-.043h.012l-.012-.012c-.011 0-.027 0-.027-.012h-.012c-.054.012-.066.04-.093.078-.012.028-.04.051-.079.067h-.011s-.016 0-.016-.016c0-.011 0-.023.016-.023.023-.016.039-.04.066-.055.024-.027.04-.05.09-.078-.012 0-.027-.016-.04 0-.01.012-.05.039-.116.117a.3.3 0 0 1-.227.149h-.012v-.016a.143.143 0 0 0-.027-.078c-.012 0-.012-.016 0-.028 0-.011-.039-.05-.05-.078-.044-.039-.067-.082-.067-.105a.04.04 0 0 1 .012-.027c.027-.04.066 0 .105.027Zm.133-.2c.012-.015.039-.027.078-.015.027 0 .04.016.055.027.011.012.023.012.039.012.012 0 .012 0 .027.016 0 .011 0 .011-.015.027-.028 0-.051-.016-.067-.016-.012-.011-.012-.011-.039-.011s-.039 0-.039.011c-.012 0-.012.016-.012.028s.012.039.04.039h.023c.015 0 .043-.012.082-.012.012 0 .012.012.012.028 0 .011-.012.011-.028.011-.039 0-.05 0-.066.012h-.04a.084.084 0 0 1-.077-.078c.011-.04.011-.067.027-.078Zm0 0"/><path fill="#fff" d="M24.871 35.156c-.012-.011-.05-.023-.066-.039a1.315 1.315 0 0 0 .16.121v-.043c-.016 0-.027.016-.027.016-.028-.016-.055-.027-.067-.055Zm-1.797 1.301c.016-.012.028-.012.055-.012h.027c.028 0 .078 0 .09-.015 0 0 .043-.028.043-.067 0-.027 0-.039-.027-.066l-.332-.106c0 .055.015.067.054.079.028.015.067.015.09.027.055.016.094.016.082.039 0 .043-.066.055-.093.066-.028 0-.04.043-.04.067.012 0 .028 0 .051-.012Zm1.414-.73c-.027.027-.05.039-.066.066h.015c.024 0 .051.016.063.027.027-.054.082-.105.121-.093 0 0 .012-.028 0-.04-.016-.027-.055-.05-.078-.066-.016-.012-.043-.027-.055-.039-.066-.055-.039-.121-.039-.16v-.027c0-.051-.12-.106-.199-.145a.331.331 0 0 1-.066-.04 2.014 2.014 0 0 0-.344-.065.431.431 0 0 0-.156.027h.039c.027 0 .066 0 .078.023.015.043.015.067 0 .094.172-.027.37.016.488.04.04 0 .055.015.066.015.016 0 .016.011.016.011 0 .016-.016.016-.016.016-.011 0-.039 0-.078-.016-.093-.011-.238-.039-.37-.039.015 0 .027.012.038.028.016.039.028.066.016.093.117-.027.25-.027.355-.027h.067c.012 0 .012.012.012.012 0 .016-.012.016-.012.016h-.305c.016 0 .016.011.027.023.012.027 0 .055 0 .066.106-.011.223-.039.305-.023.012 0 .012.012.012.012 0 .011-.012.011-.012.011-.055 0-.144 0-.226.016 0 0 .015 0 .015.012.012.015.04.027.04.054.05-.015.132-.054.198-.054.012 0 .012 0 .024.015 0 .012 0 .012-.012.024-.054.015-.12.027-.16.043.04.011.066.023.082.05.012.012.012.028.012.04.027-.028.055-.051.078-.079.016-.011.027-.027.039-.039.016-.015.016 0 .027 0 .016.012 0 .012 0 .028-.011.062-.027.078-.039.09Zm0 0"/><path d="M25.055 35.438h.039c.015 0 .043-.016.066-.016.016 0 .016 0 .027-.012 0-.015 0-.015-.011-.027-.04 0-.067 0-.082.012h-.024c-.027 0-.039-.012-.039-.04 0-.011 0-.011.012-.027 0 0 .027-.012.039-.012s.027.012.04.012a.058.058 0 0 0 .066.016c.015 0 .015-.016.015-.028 0-.011-.015-.011-.027-.011-.016 0-.028 0-.04-.016-.015-.012-.027-.012-.054-.027-.027 0-.05 0-.078.015a.061.061 0 0 0-.027.051c.011.067.039.11.078.11Zm0 0"/><path fill="#fff" d="M23.828 33.512s0-.012 0 0c0-.012 0 0 0 0l.04.027Zm.012.054-.04-.027Zm-.05.172-.067-.011Zm-.04-.133.066.028Zm.05.095-.066-.016Zm.106-.227-.023-.028Zm-.116.105.038.016Zm.01.082-.066-.015Zm.067-.172.016.012Zm-.117.571.04-.016-.04.016c-.016-.016-.016-.016 0 0-.016 0-.016 0 0 0Zm.027-.243s0-.011 0 0h-.054Zm.789-.266a1.784 1.784 0 0 1-.211-.089c0 .039.04.066.106.09.055.027.094.043.105.082h.067s.015-.016.015-.028v-.011c-.015 0-.027 0-.043-.016-.011-.012-.011-.039-.011-.05-.012.023-.012.023-.028.023Zm-.05.216c.011.011.027.011.039.011.011 0 .027-.011.027-.011a.16.16 0 0 1-.082-.067c-.012.012-.023.04-.04.051a.09.09 0 0 1 .056.016c-.016-.016 0-.016 0 0Zm-.226-.254s-.013 0 0 0c0 0-.013.015-.013.027l.184.094.039.012.027.015a.16.16 0 0 0-.078-.055c-.054-.027-.133-.066-.133-.132-.011.015-.027.027-.027.039Zm-.052.664c.09 0 .145.039.2.078a.825.825 0 0 0-.172-.305 1.251 1.251 0 0 1-.41.188h-.016v.027c.015.078-.04.117-.063.117l-.066.028h.012a.638.638 0 0 1 .199.054l.039.012c.027 0 .05.012.066.055.012.039.078.183.078.195l.067.094c.039.054.094.12.094.148 0 0 0 .012.011.024.028-.012.051-.012.067-.024.011 0 .027 0 .05-.015-.039 0-.05-.012-.078-.028-.011-.011-.039-.011-.066-.023-.012 0-.012-.016-.012-.028 0-.015.012-.015.028-.015.023.015.05.015.062.027.043.016.082.04.2.028a.63.63 0 0 0 .12-.04.168.168 0 0 1 .145 0h.027c.024 0 .04 0 .078.028.012.011.145.09.172.156.024.043.04.055.04.055h.011c.016 0 .055-.012.082.027.012.04.024.078.024.133h.144c0-.027-.023-.04-.039-.067-.012-.015-.039-.039-.066-.066-.051-.055-.13-.133-.25-.254a.448.448 0 0 0-.196-.133c-.066-.011-.187 0-.199 0a.547.547 0 0 1-.144-.027c-.055-.012-.122-.023-.172-.04-.016 0-.016-.01-.016-.01 0-.013.016-.013.016-.013.05 0 .117.024.183.04h.012a.43.43 0 0 0 0-.2c-.012-.054-.04-.082-.078-.12-.012 0-.012-.012-.027-.012a.419.419 0 0 0-.184-.083c-.012 0-.012-.011-.012-.011.012.011.024 0 .04 0Zm-.343 1.484h.171v-.012c-.011-.011-.011-.011-.011-.027l-.016-.012a.114.114 0 0 0-.05-.054c-.016-.012-.044-.028-.055-.04-.028-.011-.04-.027-.067-.038h-.172a.73.73 0 0 1-.238-.028c-.023-.027-.039-.078.016-.133a.61.61 0 0 0 .156-.265h-.012c-.039.066-.094.082-.16.082a.58.58 0 0 1-.223.222.312.312 0 0 1 0 .149c-.011.023 0 .05.012.078.016.012.027.027.043.027.078 0 .145 0 .211.012.063 0 .129 0 .223.016.027.011.066 0 .093-.028h.012c.012 0 .027.012.04.028.015-.016.027.011.027.023Zm-.582-.808v.015c.105.012.16.078.171.145h.161c.05 0 .289-.04.394-.067.027 0 .04-.011.066-.011-.011 0-.011-.016-.027-.028a.374.374 0 0 1-.066-.054c-.024-.028-.04-.04-.051-.067v-.012a1.072 1.072 0 0 0-.106-.199c-.027-.011-.078-.039-.171-.027h-.028a.547.547 0 0 1-.144-.027h-.078c-.055 0-.106 0-.122-.012h-.011c-.012 0-.012-.012-.028-.012.04.09.04.238.04.356Zm.16.198c0 .016 0 .028-.016.04.043 0 .082-.012.105-.04h-.09Zm.343-1.206h.024a.1.1 0 0 1 .066.027c.016.012.016.027.016.04 0 .015-.016.038-.027.038-.012.016-.04.016-.055.016h-.012c0 .039 0 .066.012.105a.976.976 0 0 0 .37-.16l-.01-.012c-.122-.082-.173-.187-.173-.359 0-.012.012-.012.012-.012v.067c.016.09.055.117.16.144.051 0 .078 0 .13-.011h.015c.011 0 .027.011.039.011a.247.247 0 0 1 .039-.066l-.277-.145-.145-.082c-.133.082-.184.239-.184.399Zm-.582.625.028.027c0-.016 0-.016-.016-.027h-.012Zm0 0"/><path fill="#fff" d="M24.172 33.832a.2.2 0 0 1 .012-.082.545.545 0 0 1-.106-.04c.027.04.055.083.094.122Zm-.632 2.293c-.028-.027-.056-.05-.067-.078l-.04-.027a1.56 1.56 0 0 1-.132-.122c-.028-.05-.2-.21-.238-.25-.051-.093-.028-.144 0-.187.027-.023.054-.066.078-.09l.027-.027c.145-.067.25-.211.238-.305 0-.039-.039-.121-.144-.121v-.04c0-.132 0-.331-.094-.37a1.045 1.045 0 0 0-.238.094l.199.199v.011l.012.094v.012h-.012l-.094-.012h-.012l-.222-.226a.636.636 0 0 0-.149.172l-.011.015c-.04.012-.145.024-.317-.054-.054-.028-.105-.012-.16.011a.175.175 0 0 0-.09.16c-.015.121.078.227.117.254.055.051.028.133 0 .157-.011.027-.027.12-.011.16.039.039.078.082.066.133a.08.08 0 0 0 0 .066l.012-.012a.394.394 0 0 1 .094-.082l.011-.012s.012-.011.012-.027c.016-.027 0-.078-.012-.094-.011-.023-.011-.039-.011-.05v-.055c.078-.067.117-.106.066-.16-.066-.078-.121-.145-.172-.172-.043-.04-.055-.106-.027-.145.039-.066.117-.066.172-.027.066.027.183.027.195.027h.016s.011 0 .011.012c.067.121.172.227.293.32.012.012.024.028.012.078a.861.861 0 0 1-.117.215c-.016.012-.016.024-.016.04v.011c.016 0 .055.04.133.121.012.012.039.024.039.04.04.038.16.198.172.238.012.027.039.066.066.054h.012c.016 0 .04.012.055.012.011.012.011.027.011.039 0 .027 0 .04-.011.055Zm1.753-1.434.16.043c0-.027 0-.082-.027-.12-.04-.051-.078-.106-.133-.134-.066-.039-.277-.171-.305-.183-.039-.027-.117-.016-.168-.016a.523.523 0 0 0-.148.082c-.024.024-.067.04-.09.051a.569.569 0 0 1 0 .2c.023 0 .04.011.066.011 0-.012 0-.023.012-.04.05-.05.117-.155.133-.17a.214.214 0 0 1 .133-.04c.023 0 .234.094.25.121.012.012.027.024.039.024s.05-.012.078.015c.027.028.039.04.016.078-.016.028-.028.055-.016.078Zm-1.16-1.296a.497.497 0 0 0-.055-.083l-.012-.011c-.011.011-.011.039-.011.054 0 .024-.016.04-.028.067l.118.066.015-.015v-.04c0-.027-.015-.038-.027-.038Zm0 0"/><path fill="#fff" d="M24.46 33.672c-.038.055-.116.172-.194.226-.133.094-.278.16-.426.2-.024 0-.05.011-.078 0-.012 0-.04-.016-.051-.028h-.016c.028.028.04.028.055.028h.078c.16-.04.29-.106.438-.2a.673.673 0 0 0 .195-.226Zm-.21-.25c-.027-.016-.04-.016-.04-.016-.01 0-.01.028-.01.028v.011l-.016.028.054.027c0-.012.012-.012.012-.012s0-.015.016-.015c.011 0 .023-.012.011-.028 0 0 0-.011-.027-.023Zm-1.598.676c-.023.023-.066.05-.09.078.012.011.012.011.012.027.012 0 .012-.016.028-.016a.201.201 0 0 1 .05-.09Zm.344-.676a.357.357 0 0 0-.09.078c-.027.027-.043.04-.066.066.129-.015.223-.027.289-.027.055-.039.105-.066.133-.094a1.99 1.99 0 0 1-.266-.023Zm0 0"/><path fill="#fff" d="M22.563 33.512c-.016.015-.016.082-.016.12v.067c.133-.054.305-.066.45-.082h.038c.016-.012.027-.023.055-.039-.067 0-.16.016-.305.027h-.012c-.027 0-.066-.027-.093-.054-.04-.024-.078-.051-.117-.04Zm-.173.875c.028 0 .09.015.172.015v-.015c-.015 0-.015-.012-.027-.012s-.012-.012-.027-.027v-.012c-.012 0-.012-.016-.012-.016-.016-.011-.016-.023 0-.039l.012-.011s-.012 0-.012-.016c-.055.055-.078.094-.105.133Zm.66-.555c-.027.012-.066.04-.081.04l-.012.01c-.039.056-.117.177-.184.255-.015.011-.039.066-.039.105.118-.144.25-.293.407-.36v-.105a.255.255 0 0 1-.09.055Zm0 0"/><path fill="#fff" d="M22.375 33.684c-.023.015 0 .12.016.175.011.04.011.067.011.078.2-.12.371-.199.543-.253.012-.012.024-.024.04-.024-.16.012-.333.024-.45.078-.027.012-.055-.011-.078-.027-.027-.012-.066-.04-.082-.027Zm0 0"/><path fill="#fff" d="M22.219 34.098a.726.726 0 0 1 .011.144c.145-.144.438-.36.57-.383.012-.027.04-.043.052-.066 0-.016.011-.027.027-.043-.16.055-.317.133-.488.242h-.016c-.023 0-.05-.015-.09-.043-.027-.011-.066-.039-.082-.039 0 .016.016.121.016.188Zm0 0"/><path fill="#fff" d="M21.992 34.27c0 .039.211.132.293.144l.067-.027a.55.55 0 0 1 .105-.145c0-.012-.016-.012-.016-.027 0 0 0-.012.028-.04.011-.01.027-.027.039-.027 0 0 .015 0 .015.016.051-.055.118-.105.168-.16v-.012c.016-.027.028-.054.055-.082-.144.067-.437.266-.543.399-.023.011-.05 0-.117-.028-.012 0-.078-.027-.094-.011Zm.504 1.71h-.016s-.011.012 0 .028c0 0 0 .012.016.012l1.598.476h.011l-.011-.012Zm.633-1.14-.012-.055-.41-.398.395.398c.015.016.015.016 0 .028h-.028l-.394-.399.394.41Zm-.438-.492.043-.04-.132.133.039-.039Zm0 0"/><path fill="#fff" d="M22.547 34.23c-.012-.027-.024-.042-.04-.042 0 0-.01.015-.027.027 0 .015.028.027.043.039 0-.012.012-.024.024-.024Zm1.187-.718c-.011.015-.011.015-.023.027.012.012.023.012.039.027v-.015c0-.012 0-.012.012-.024 0 0-.012 0-.028-.015.016.015.016 0 0 0Zm-.234-.024.012.024c.039.12.05.172.133.199 0-.027 0-.05-.016-.078v-.028c0-.039.016-.054.027-.066-.011 0-.011-.012-.027-.012-.012-.027 0-.039 0-.066v-.027c0-.012-.012-.012-.024 0a.043.043 0 0 0-.027.011c-.015 0-.015.016-.027.016 0 .027 0 .05-.04.05 0-.023-.011-.023-.011-.023Zm-.094-.015c0 .015.012.027.012.039 0-.012 0-.024-.012-.04.012 0 .012 0 0 0Zm.051.015c0 .012.016.024.016.024Zm0 0"/><path fill="#fff" d="M23.672 33.5h.012c.027 0 .027-.012.039-.04v-.015c.011-.011.011-.011.027-.023l.012-.016c.015-.05.066-.05.093-.039v-.012c0-.015 0-.027.012-.027h.028v-.027h-.028c-.027-.012-.05-.04-.066-.078-.012-.043-.04-.067-.078-.067-.051 0-.145.024-.16.078 0 .04-.012.078-.012.078 0 .016 0 .016-.012.016h-.027v.012h.011s.016 0 .016.015c.012 0 .012-.015.04-.015.026-.012.05 0 .066.015.011.012.027.04.011.067 0 .066.016.078.016.078Zm0 0"/><path fill="#fff" d="M23.523 33.328c.016 0 .016 0 0 0 .016-.016.016-.039.028-.082.027-.078.144-.105.199-.105.05 0 .105.027.117.093 0 .012.028.04.04.055h.015c.012-.043.039-.055.066-.055l-.015-.011c-.012-.016-.028-.028-.04-.043-.027-.04-.105-.078-.183-.078s-.16.078-.188.12c-.039.04-.117.067-.144.051-.012 0-.023-.011-.023-.011-.016 0-.016-.016-.028-.016h-.094c-.011 0-.011 0-.027.016-.012 0-.023.011-.05.011-.028 0-.106 0-.134.016 0 0 0 .012.012.023 0 .016.016.016.016.016h.012a.21.21 0 0 1 .105.027.254.254 0 0 0 .133 0c.055-.015.094 0 .133.012.011 0 .027.012.05.012v-.024c-.023-.015 0-.027 0-.027Zm.267.172c0-.012 0-.027.01-.027.016-.012.016-.012.028 0h.012v-.012c0-.016 0-.027.015-.055-.027 0-.039 0-.039.016l-.027.023s-.012 0-.012.016v.012h.012c-.012.027-.012.027 0 .027Zm.327 1.34-.05.027c.011.012.027.024.038.024.012.015.012.015.028.015 0-.015.012-.015.012-.015l-.012-.04c-.016 0-.016-.011-.016-.011Zm.043 0 .024.05v.016-.015Zm-.847-.344c.015.012.066.012.105.012h.094c.05.012.105.027.133.027h.039-.012c-.055 0-.094-.015-.133-.027-.039-.012-.066-.028-.094-.04-.039-.027-.093-.038-.156-.054h-.016v.027c0 .04.016.04.04.055Zm.871.304s.015.013 0 .013l.015.039h.012a.082.082 0 0 0-.027-.051Zm.106.29c-.013 0-.013 0 0 0h-.013a.166.166 0 0 1-.054-.078l-.024-.055-.015.016c.027.039.027.105.027.132v.028h.027c.04 0 .133.012.157.023.015 0 .015.016.027.028l.039.027c.066 0 .105.012.121 0h.012v-.027a.264.264 0 0 1-.106-.028.665.665 0 0 1-.16-.117.343.343 0 0 1-.05-.094c0-.011-.012-.011-.012-.027l-.028.016.028.05c.011.04.023.055.023.094v.012Zm0 0"/><path fill="#fff" d="M23.328 33.46c-.094.04-.422.29-.45.345-.015.027-.038.054-.054.078a.592.592 0 0 0-.078.12c-.012.013-.027.04-.039.056a.828.828 0 0 0-.078.144s0 .012-.016.012c-.05.027-.105.082-.117.082l.05-.043h.028v.027l-.05.04.05-.04c.012-.011.012 0 .028 0v.028h.027c.012.011 0 .011 0 .027l-.055.05.117-.116c0-.067.043-.133.055-.149.067-.078.145-.195.184-.25l.015-.012c.012-.015.024-.027.09-.054.04-.028.106-.055.121-.067l.106-.054h.011c0 .015.016.027.016.043.023.05.04.105.063.117.015 0 .015.015.015.027l-.015.012h-.012c-.04-.024-.067-.078-.078-.133 0-.012-.016-.012-.016-.023l-.078.039a.634.634 0 0 0 .016.238.949.949 0 0 0 .039.144c.011.04.023.082.039.122.011.05.011.093.011.132h.016a.31.31 0 0 1 .168.051.723.723 0 0 0 .094.043.398.398 0 0 0 .12.012c.063.012.157.012.224.054.011 0 .011.012.011.024 0 .016-.011.016-.011.016h-.028c.028.023.067.117.121.21v.012s0 .016.012.016l.145-.082c-.028-.04-.051-.067-.051-.078a2.132 2.132 0 0 1-.094-.211c-.012-.028-.027-.028-.055-.04l-.039-.015a.9.9 0 0 0-.195-.05c-.04-.016-.066-.016-.082-.028h-.012a.415.415 0 0 1-.238-.106c-.012-.015-.012-.015 0-.027.016-.016.016-.016.027 0 .051.04.133.078.2.094v-.027c0-.016 0-.028-.016-.04-.012-.042-.024-.093-.012-.132 0-.016.012-.067.012-.094 0-.012.015-.027.015-.04 0-.015.012-.038.012-.054 0-.027.012-.105.012-.144-.117-.016-.211-.106-.262-.293-.015-.028-.027-.012-.039-.012Zm.04.638a.259.259 0 0 1-.122-.04c-.012 0-.012-.015 0-.027 0-.015.016-.015.027 0a.284.284 0 0 0 .094.028c.012 0 .012.011.012.011 0 .012 0 .028-.012.028Zm.05-.215c0-.012.016-.012.027-.012.04.012.067.012.106.012h.012c.015 0 .015 0 .027.015 0 .012 0 .012-.012.028h-.015c-.024 0-.04.011-.063.011-.027 0-.043 0-.066-.011-.016-.028-.016-.043-.016-.043Zm0 .176c.027 0 .121.023.145.078 0 .011 0 .011-.012.027-.012 0-.012 0-.012-.016 0-.027-.055-.039-.105-.05-.016 0-.016-.016-.016-.028-.023 0-.012-.011 0-.011Zm0 0"/><path d="M23.5 33.926c.012 0 .04 0 .063-.016h.015c.012 0 .012-.012.012-.027 0-.012-.012-.012-.027-.012h-.012c-.04.012-.067.012-.106-.012-.011 0-.027 0-.027.012s0 .027.016.027c.023.028.039.028.066.028Zm-.133.133a.284.284 0 0 1-.094-.028h-.027v.028a.215.215 0 0 0 .121.039c.012 0 .012-.016.012-.016 0-.012 0-.023-.012-.023Zm0 0"/><path d="M23.406 34.098c.051.011.106.023.106.05 0 .016.011.016.011.016.016 0 .016-.016.016-.027-.016-.055-.105-.078-.144-.078-.016 0-.016 0-.028.011.028.012.04.028.04.028Zm0 0"/></svg>