<svg xmlns="http://www.w3.org/2000/svg" width="130" viewBox="0 0 97.5 97.5" height="130" version="1.0"><defs><clipPath id="a"><path d="M15.879 25H38v47.25H15.879Zm0 0"/></clipPath><clipPath id="b"><path d="M37 25h23v47.25H37Zm0 0"/></clipPath><clipPath id="c"><path d="M59 25h22.879v47.25H59Zm0 0"/></clipPath></defs><g clip-path="url(#a)"><path fill="#002b7f" d="M23.215 25.016c-4.05 0-7.336 3.25-7.336 7.265v32.692c0 4.015 3.285 7.265 7.336 7.265h14.664V25.016Zm0 0"/></g><g clip-path="url(#b)"><path fill="#fcd116" d="M37.879 25.016h22v47.222h-22Zm0 0"/></g><g clip-path="url(#c)"><path fill="#ce1126" d="M74.547 25.016H59.879v47.222h14.668c4.05 0 7.332-3.25 7.332-7.265V32.28c0-4.015-3.281-7.265-7.332-7.265Zm0 0"/></g></svg>