<svg xmlns="http://www.w3.org/2000/svg" width="130" viewBox="0 0 97.5 97.5" height="130" version="1.0"><defs><clipPath id="a"><path d="M15.723 39h66v20h-66Zm0 0"/></clipPath><clipPath id="b"><path d="M15.723 58h66v14.887h-66Zm0 0"/></clipPath><clipPath id="c"><path d="M15.723 24.887h66V68h-66Zm0 0"/></clipPath></defs><g clip-path="url(#a)"><path fill="#0c4076" d="M15.723 39.66h66v18.453h-66Zm0 0"/></g><g clip-path="url(#b)"><path fill="#eee" d="M15.723 65.496c0 4.078 3.285 7.383 7.332 7.383H74.39c4.046 0 7.332-3.305 7.332-7.383v-7.383h-66Zm0 0"/></g><g clip-path="url(#c)"><path fill="#c6363c" d="M81.723 32.277c0-4.074-3.285-7.379-7.332-7.379H23.055c-4.047 0-7.332 3.305-7.332 7.38v7.382h66ZM28.555 39.66v17.531c0 5.606 4.515 10.153 10.086 10.153 5.57 0 10.082-4.547 10.082-10.153v-17.53Zm0 0"/></g><path fill="#edb92e" d="M38.64 28.703c-7.222 0-9.484 3.086-8.882 4.238.601 1.153 2.406 4.121 2.406 4.121s-.57.231 0 1.387c.57 1.153 2.809.375 6.473.375 3.668 0 5.902.778 6.472-.375.575-1.156 0-1.386 0-1.386s1.805-2.97 2.41-4.122c.602-1.152-1.66-4.238-8.878-4.238Zm-6.304 5.477c-.52.164 0 1.761-.184 1.07-.148-.57-.734-.809-.734-.492 0 .32-.227 0-.172-.574.059-.579-.113-.922-.457-1.414-.344-.493-.344-.922.09-1.211.426-.29 1.375-.52 1.375-.52s.371 1.645.57 2.02c.2.375.57.617.57.617s-.171.273 0 .418c.176.144.376.492.376.492s-.63-.52-.743-.406c-.113.117.141.261.114.465-.032.203-.348-.606-.805-.465Zm5.844.03c-.14.145-.258-.116-.543-.315-.285-.204-.457-.086-.403.144.059.23-.343.203-.343.547 0 .348-.371.203-.371.203s.457-1.21-.317-1.184c-.437.016-.285.922 0 1.243-.125-.196-.488-.203-.789-.434-.3-.23.043-.605-.187-.52-.227.086-.372.461-.602.547-.227.086-.113-.261 0-.546.113-.29-.129-.434-.129-.434s.016-.2.188-.316c.171-.114.23-.317 0-.547-.227-.23-1.055-1.532-.801-1.965.258-.43 1.117-.922 3.523-.863.43 1.988-.226 2.968-.226 2.968s.488.317.629.492c-.344.145-.086.29.144.489.227.203.371.347.227.492Zm4.472-.315c.114.285.227.632 0 .546-.23-.086-.375-.46-.601-.546-.23-.086.113.289-.188.52-.3.23-.66.237-.789.433.285-.32.438-1.227 0-1.243-.773-.027-.316 1.184-.316 1.184s-.371.145-.371-.203c0-.344-.403-.316-.344-.547.055-.23-.113-.348-.402-.144-.286.199-.403.46-.543.316-.145-.145 0-.29.226-.492.23-.2.492-.344.145-.489.144-.171.633-.492.633-.492s-.66-.976-.23-2.968c2.405-.055 3.265.433 3.523.867.257.43-.57 1.73-.801 1.96-.235.227-.176.43 0 .548a.451.451 0 0 1 .187.316s-.246.144-.129.434Zm3.836-1.125c-.343.492-.515.835-.457 1.414.055.574-.176.894-.176.574 0-.317-.582-.078-.73.492-.184.691.336-.902-.184-1.07-.46-.14-1.058 1.242-.918 1.097.145-.144.344-.98.23-1.097-.112-.114-.745.406-.745.406s.199-.348.375-.492c.172-.145 0-.418 0-.418s.37-.242.57-.617c.2-.375.57-2.02.57-2.02s.95.23 1.375.52c.43.285.434.718.09 1.21Zm0 0"/><path fill="#ffac33" d="M38.84 29.035a.332.332 0 0 1-.332.332.33.33 0 0 1-.328-.332v-2.914c0-.18.148-.332.328-.332.183 0 .332.152.332.332Zm0 0"/><path fill="#edb92e" d="M39.5 26.902c0 .168-.133.301-.3.301h-1.434a.3.3 0 0 1-.301-.3c0-.169.137-.305.3-.305H39.2c.168 0 .301.136.301.304Zm0 0"/><path fill="#0c4076" d="M39.586 28.703c0 .613-.492 1.11-1.106 1.11a1.107 1.107 0 0 1-1.101-1.11c0-.613.492-1.113 1.101-1.113.61.004 1.106.5 1.106 1.113Zm-6.254 9.621c0 .274-.312.492-.695.492-.383 0-.692-.218-.692-.492 0-.27.309-.488.692-.488.383 0 .695.219.695.488Zm0 0"/><path fill="#c6363c" d="M36.117 38.156c0 .274-.308.492-.691.492-.383 0-.692-.218-.692-.492 0-.27.309-.488.692-.488.383 0 .691.219.691.488Zm6.188 0c0 .274-.309.492-.692.492-.383 0-.691-.218-.691-.492 0-.27.308-.488.691-.488.383 0 .692.219.692.488Zm0 0"/><path fill="#0c4076" d="M45.168 38.324c0 .274-.309.492-.691.492-.383 0-.692-.218-.692-.492 0-.27.309-.488.692-.488.382 0 .691.219.691.488Zm-5.965-.203c0 .274-.308.492-.691.492-.383 0-.696-.218-.696-.492 0-.27.313-.488.696-.488.383 0 .691.219.691.488Zm0 0"/><path fill="#edb92e" d="M34.582 57.309c-.629 1.43-.695 2.136-1.437 2.086-.743-.051-1.27-.176-1.27.125 0 .3 1.184.175 1.184.175s-1.118.48-.895 1.032c.215.554 1.18-.704 1.18-.704s.199.051.57-.253c.371-.301 1.356-1.758 1.356-1.758Zm8.086 0c.629 1.43.695 2.136 1.437 2.086.743-.051 1.27-.176 1.27.125 0 .3-1.184.175-1.184.175s1.118.48.899 1.032c-.219.554-1.184-.704-1.184-.704s-.195.051-.566-.253c-.375-.301-1.36-1.758-1.36-1.758Zm0 0"/><path fill="#fff" d="M47.098 44.621c-.32-2.23-2.407-1.539-3.293 0-.883 1.54-1.649 2.461-2.47 1.383-.82-1.074-1.358-2.227-.175-3.691l1.184-1.461c-.168-.883-.88-.692-1.895-.27-1.015.426-1.656.23-1.554.695.101.461.472.5.472.5s-.64.625-.808 2.79c-.168-2.165-.809-2.79-.809-2.79s.371-.039.473-.5c.101-.465-.54-.27-1.555-.695-1.016-.422-1.727-.613-1.895.27l1.184 1.46c1.184 1.465.645 2.618-.176 3.692-.816 1.078-1.582.27-2.468-1.27-.887-1.535-2.973-2.226-3.293 0-.325 2.23.05 6.114.05 6.114s-.203 2.113.203 3.922c.407 1.804.645 3.421 0 4.804.711-.191 1.149-1.113 1.149-1.113s-.235 1.113.207 1c.437-.113.539-.961.875-1.27.34-.308.613-1 .613-1s.711-.27 0 .922c.574.04.946-.343.946-.343l.203 1.078.34-.578.167 1.039.61-1 .398.46s.074-1.96.617-1.578c.54.387.575 1.657.204 2.422-.372.77 0 1.078 0 1.078s-.543.809-.817 1.27c-.277.46.14 1 .14 1s-1.046 1.574-.757 2.191c.285.59 2.031.965 3.309.996l.011.004.07-.004.07.004.013-.004c1.277-.03 3.027-.406 3.308-.996.293-.613-.758-2.191-.758-2.191s.418-.54.145-1c-.277-.461-.82-1.27-.82-1.27s.37-.308 0-1.078c-.371-.765-.34-2.035.203-2.422.539-.382.613 1.579.613 1.579l.398-.461.61 1 .168-1.04.34.579.203-1.078s.37.382.949.343c-.715-1.191 0-.922 0-.922s.27.692.605 1c.34.309.442 1.157.883 1.27.438.117.203-1 .203-1s.438.926 1.149 1.117c-.64-1.387-.406-3.004 0-4.808.406-1.805.203-3.922.203-3.922s.379-3.996.055-6.227Zm0 0"/><path fill="#edb92e" d="M37.523 42.082c-.808-.777-2.82-1.789-3.488-1.645-.668.145-1.203.606-.703 1.329.496.722.703.691.703.691s.793-.719 1.14-.316c.345.406.055.547-.573.605-.63.059-1.27-.375-1.27-.375s.207.75 1.082.836c.59.578 1.332.145 1.703.145.375 0 2.121-.575 1.406-1.27Zm2.075 0c.804-.777 2.82-1.789 3.484-1.645.668.145 1.203.606.707 1.329-.496.718-.707.691-.707.691s-.793-.723-1.137-.316c-.343.402-.058.547.57.605.633.055 1.274-.375 1.274-.375s-.207.746-1.082.836c-.59.578-1.332.145-1.707.145s-2.121-.575-1.402-1.27ZM34 62.172c.25-.582.074-.664-.129-.867-.203-.203-.3-.485-.3-.485s-.102.282-.305.485c-.203.199-.383.285-.13.867-.613-.363-.71.305-.433.707.082-.363.563-.281.563.164 0 .441-.399.242-.352.422.05.183.414.566.652.566.243 0 .606-.383.653-.566.05-.184-.348.02-.348-.422 0-.445.477-.527.559-.164.28-.402.183-1.07-.43-.707Zm9.969 0c.25-.582.074-.664-.13-.867-.202-.203-.304-.485-.304-.485s-.101.282-.305.485c-.203.199-.378.285-.125.867-.613-.363-.714.305-.433.707.078-.363.558-.281.558.164 0 .441-.394.242-.347.422.047.183.414.566.652.566.242 0 .606-.383.653-.566.05-.184-.348.02-.348-.422 0-.445.48-.527.558-.164.282-.402.184-1.07-.43-.707Zm0 0"/><path fill="#c6363c" d="M34.504 46.813v7.12c0 2.274 1.832 4.122 4.094 4.122 2.265 0 4.097-1.848 4.097-4.121v-7.121Zm0 0"/><path fill="#eee" d="M42.695 51.05h-3.21v-4.237h-1.766v4.238h-3.215v1.777h3.215v5.129c.285.063.578.102.883.102.304 0 .597-.04.882-.102v-5.129H42.7v-1.777Zm0 0"/></svg>