<svg xmlns="http://www.w3.org/2000/svg" width="130" viewBox="0 0 97.5 97.5" height="130" version="1.0"><defs><clipPath id="a"><path d="M32 24.84h49.656V42H32Zm0 0"/></clipPath><clipPath id="b"><path d="M32 41h49.656v16H32Zm0 0"/></clipPath><clipPath id="c"><path d="M32 56h49.656v16.84H32Zm0 0"/></clipPath><clipPath id="d"><path d="M15.656 24.84H33v48H15.656Zm0 0"/></clipPath></defs><g clip-path="url(#a)"><path fill="#068241" d="M74.324 24.848H32.156v16.609h49.5V32.23c0-4.074-3.285-7.382-7.332-7.382Zm0 0"/></g><g clip-path="url(#b)"><path fill="#eee" d="M32.156 41.457h49.5v14.766h-49.5Zm0 0"/></g><g clip-path="url(#c)"><path fill="#141414" d="M32.156 72.832h42.168c4.047 0 7.332-3.309 7.332-7.383v-9.226h-49.5Zm0 0"/></g><g clip-path="url(#d)"><path fill="#ec2028" d="M22.988 24.848c-4.047 0-7.332 3.308-7.332 7.382v33.22c0 4.073 3.285 7.382 7.332 7.382h9.168V24.848Zm0 0"/></g></svg>